<svg width="127" height="118" viewBox="0 0 127 118" fill="none" xmlns="http://www.w3.org/2000/svg">
    <path d="M45.03 49.53C57.46 49.53 67.54 39.45 67.54 27.02C67.54 14.59 57.46 4.5 45.03 4.5C32.6 4.5 22.52 14.58 22.52 27.01C22.52 39.44 32.6 49.52 45.03 49.52V49.53Z" stroke="white" stroke-width="9.01" stroke-linecap="round" stroke-linejoin="round"/>
    <path d="M4.49999 112.57H85.55V107.69C85.48 100.83 83.67 94.09 80.29 88.12C76.91 82.14 72.07 77.12 66.22 73.53C60.37 69.93 53.71 67.87 46.85 67.55C46.24 67.52 45.63 67.51 45.02 67.5C44.41 67.5 43.8 67.52 43.19 67.55C36.33 67.87 29.67 69.93 23.82 73.53C17.97 77.13 13.13 82.15 9.74999 88.12C6.36999 94.09 4.55999 100.83 4.48999 107.69V112.57H4.49999Z" stroke="white" stroke-width="9.01" stroke-linecap="round" stroke-linejoin="round"/>
    <path d="M81.05 49.5298C93.48 49.5298 103.56 39.4498 103.56 27.0198C103.56 14.5898 93.48 4.50977 81.05 4.50977" stroke="white" stroke-width="9.01" stroke-linecap="round" stroke-linejoin="round"/>
    <path d="M103.57 112.57H121.58V107.69C121.51 100.83 119.7 94.09 116.32 88.12C112.94 82.14 108.1 77.12 102.25 73.53C98.4701 71.2 94.3501 69.52 90.0601 68.54" stroke="white" stroke-width="9.01" stroke-linecap="round" stroke-linejoin="round"/>
</svg>
