<svg width="119" height="119" viewBox="0 0 119 119" fill="none" xmlns="http://www.w3.org/2000/svg">
    <path d="M59.48 114.72C89.99 114.72 114.71 89.99 114.71 59.49C114.71 28.99 89.99 4.25 59.48 4.25C28.97 4.25 4.25 28.98 4.25 59.48C4.25 89.98 28.98 114.71 59.48 114.71V114.72Z" stroke="white" stroke-width="8.5" stroke-linecap="round" stroke-linejoin="round"/>
    <path d="M59.4805 4.25V114.72" stroke="white" stroke-width="8.5" stroke-linecap="round" stroke-linejoin="round"/>
    <path d="M17.8398 95.77C24.0698 91.98 29.2098 86.65 32.7798 80.3C36.3498 73.95 38.2298 66.78 38.2298 59.49C38.2298 52.2 36.3498 45.03 32.7798 38.68C29.2098 32.33 24.0598 27 17.8398 23.21" stroke="white" stroke-width="8.5" stroke-linecap="round" stroke-linejoin="round"/>
    <path d="M101.12 23.2002C94.9002 26.9902 89.7502 32.3202 86.1802 38.6802C82.6102 45.0302 80.7402 52.2002 80.7402 59.4902C80.7402 66.7802 82.6102 73.9402 86.1802 80.3002C89.7502 86.6502 94.8902 91.9802 101.12 95.7802" stroke="white" stroke-width="8.5" stroke-linecap="round" stroke-linejoin="round"/>
</svg>
