<svg width="119" height="121" viewBox="0 0 119 121" fill="none" xmlns="http://www.w3.org/2000/svg">
    <path d="M71.9643 43.0101C76.7143 43.0101 80.5643 39.1601 80.5643 34.4101C80.5643 29.6601 76.7143 25.8101 71.9643 25.8101C67.2143 25.8101 63.3643 29.6601 63.3643 34.4101C63.3643 39.1601 67.2143 43.0101 71.9643 43.0101Z" stroke="white" stroke-width="8.6" stroke-linecap="round" stroke-linejoin="round"/>
    <path d="M37.5539 86.0199C39.9339 86.0199 41.8539 84.0899 41.8539 81.7199C41.8539 79.3499 39.9239 77.4199 37.5539 77.4199C35.1839 77.4199 33.2539 79.3499 33.2539 81.7199C33.2539 84.0899 35.1839 86.0199 37.5539 86.0199Z" stroke="white" stroke-width="8.6" stroke-linecap="round" stroke-linejoin="round"/>
    <path d="M37.5541 55.91C42.3041 55.91 46.1541 52.06 46.1541 47.31C46.1541 42.56 42.3041 38.71 37.5541 38.71C32.8041 38.71 28.9541 42.56 28.9541 47.31C28.9541 52.06 32.8041 55.91 37.5541 55.91Z" stroke="white" stroke-width="8.6" stroke-linecap="round" stroke-linejoin="round"/>
    <path d="M80.7439 105.63C80.6439 103.96 80.0639 102.36 79.0739 101.01C78.0839 99.6699 76.7139 98.6399 75.1539 98.0599C71.2639 96.7799 67.9539 94.1599 65.8239 90.6599C63.6939 87.1599 62.8839 83.0199 63.5339 78.9699C64.1839 74.9299 66.2639 71.2499 69.3839 68.5999C72.5039 65.9499 76.4739 64.4999 80.5639 64.5099H96.6539C99.4139 64.5099 102.134 63.8599 104.584 62.5999C107.034 61.3399 109.144 59.4999 110.744 57.2499C112.334 54.9999 113.364 52.3999 113.744 49.6599C114.124 46.9299 113.834 44.1399 112.914 41.5399C109.494 31.8799 103.484 23.3499 95.5439 16.8699C87.6039 10.3899 78.0339 6.22986 67.8839 4.81986C57.7339 3.41986 47.3939 4.81986 37.9839 8.89986C28.5839 12.9699 20.4739 19.5599 14.5639 27.9199C8.64388 36.2899 5.14388 46.1199 4.43388 56.3399C3.72388 66.5599 5.84388 76.7799 10.5539 85.8899C15.2639 94.9899 22.3839 102.62 31.1339 107.95C39.8839 113.28 49.9339 116.1 60.1839 116.11C65.2439 116.12 70.2839 115.43 75.1539 114.05C76.9439 113.55 78.4939 112.42 79.5139 110.87C80.5439 109.32 80.9739 107.46 80.7439 105.62V105.63Z" stroke="white" stroke-width="8.6" stroke-linecap="round" stroke-linejoin="round"/>
</svg>
