<svg width="530" height="200" viewBox="0 0 530 200" fill="none" xmlns="http://www.w3.org/2000/svg">
    <path d="M26.1533 108.301H7.37656L9.12011 61.0914H24.4097L26.1533 108.301ZM16.7649 38.5593C19.2238 38.5593 21.392 39.4758 23.2697 41.3088C25.1697 43.1194 26.1309 45.3324 26.1533 47.9477C26.1309 50.496 25.1697 52.6754 23.2697 54.486C21.392 56.2966 19.2238 57.2019 16.7649 57.2019C14.1719 57.2019 11.9478 56.2966 10.0925 54.486C8.25951 52.6754 7.35421 50.496 7.37656 47.9477C7.35421 46.2041 7.76774 44.6282 8.61717 43.22C9.46659 41.7894 10.6066 40.6605 12.0372 39.8335C13.4678 38.9841 15.0437 38.5593 16.7649 38.5593ZM37.9893 91V22.3309H56.6319V49.1548H81.3098V22.3309H99.9524V91H81.3098V64.1761H56.6319V91H37.9893ZM175.327 56.6655C175.327 64.3103 173.841 70.7592 170.868 76.0122C167.895 81.2428 163.883 85.2105 158.831 87.9153C153.779 90.5976 148.146 91.9388 141.932 91.9388C135.673 91.9388 130.018 90.5865 124.966 87.8817C119.936 85.1546 115.935 81.1758 112.962 75.9451C110.011 70.6921 108.536 64.2655 108.536 56.6655C108.536 49.0207 110.011 42.5829 112.962 37.3523C115.935 32.0993 119.936 28.1316 124.966 25.4492C130.018 22.7444 135.673 21.3921 141.932 21.3921C148.146 21.3921 153.779 22.7444 158.831 25.4492C163.883 28.1316 167.895 32.0993 170.868 37.3523C173.841 42.5829 175.327 49.0207 175.327 56.6655ZM156.148 56.6655C156.148 52.5525 155.601 49.0877 154.505 46.2712C153.432 43.4323 151.834 41.2864 149.711 39.8335C147.609 38.3582 145.017 37.6205 141.932 37.6205C138.847 37.6205 136.243 38.3582 134.119 39.8335C132.018 41.2864 130.42 43.4323 129.325 46.2712C128.252 49.0877 127.715 52.5525 127.715 56.6655C127.715 60.7784 128.252 64.2544 129.325 67.0932C130.42 69.9097 132.018 72.0556 134.119 73.531C136.243 74.9839 138.847 75.7104 141.932 75.7104C145.017 75.7104 147.609 74.9839 149.711 73.531C151.834 72.0556 153.432 69.9097 154.505 67.0932C155.601 64.2544 156.148 60.7784 156.148 56.6655ZM183.953 91V22.3309H202.596V75.9786H230.358V91H183.953ZM255.732 91H235.614L258.28 22.3309H283.763L306.429 91H286.311L271.29 41.2417H270.753L255.732 91ZM251.977 63.9079H289.798V77.8563H251.977V63.9079Z" fill="white"/>
    <path d="M22.2638 176.51H2.14591L24.8121 107.841H50.2947L72.9609 176.51H52.843L37.8216 126.752H37.2852L22.2638 176.51ZM18.5085 149.418H56.3301V163.366H18.5085V149.418ZM79.5747 107.841H102.777L118.738 146.735H119.542L135.502 107.841H158.705V176.51H140.465V136.81H139.928L124.639 175.973H113.641L98.3514 136.542H97.8149V176.51H79.5747V107.841ZM186.183 107.841V176.51H167.54V107.841H186.183ZM239.613 130.507C239.322 129.322 238.864 128.283 238.238 127.389C237.612 126.472 236.83 125.701 235.891 125.075C234.974 124.427 233.901 123.946 232.672 123.633C231.465 123.298 230.135 123.13 228.682 123.13C225.552 123.13 222.881 123.879 220.668 125.377C218.478 126.874 216.801 129.032 215.639 131.848C214.499 134.665 213.929 138.062 213.929 142.041C213.929 146.065 214.476 149.507 215.572 152.368C216.667 155.23 218.299 157.42 220.467 158.94C222.635 160.46 225.329 161.22 228.548 161.22C231.387 161.22 233.745 160.807 235.622 159.98C237.523 159.152 238.942 157.979 239.881 156.459C240.82 154.939 241.289 153.151 241.289 151.094L244.508 151.429H228.816V138.152H259.261V147.674C259.261 153.933 257.931 159.287 255.271 163.735C252.633 168.161 248.99 171.559 244.34 173.928C239.713 176.275 234.404 177.449 228.414 177.449C221.73 177.449 215.862 176.029 210.81 173.19C205.759 170.351 201.813 166.306 198.974 161.053C196.158 155.8 194.75 149.552 194.75 142.309C194.75 136.632 195.61 131.602 197.331 127.221C199.075 122.84 201.489 119.14 204.574 116.123C207.659 113.083 211.224 110.791 215.27 109.249C219.316 107.684 223.652 106.902 228.279 106.902C232.348 106.902 236.125 107.483 239.613 108.645C243.122 109.785 246.218 111.417 248.9 113.541C251.605 115.642 253.784 118.134 255.439 121.018C257.093 123.901 258.099 127.064 258.456 130.507H239.613ZM308.592 107.841H327.234V151.832C327.234 157.062 325.983 161.589 323.479 165.411C320.998 169.211 317.533 172.151 313.085 174.23C308.636 176.286 303.473 177.314 297.594 177.314C291.67 177.314 286.484 176.286 282.036 174.23C277.588 172.151 274.123 169.211 271.642 165.411C269.183 161.589 267.954 157.062 267.954 151.832V107.841H286.596V150.222C286.596 152.346 287.066 154.246 288.004 155.922C288.943 157.577 290.24 158.873 291.894 159.812C293.57 160.751 295.47 161.22 297.594 161.22C299.74 161.22 301.64 160.751 303.294 159.812C304.948 158.873 306.245 157.577 307.184 155.922C308.122 154.246 308.592 152.346 308.592 150.222V107.841ZM354.737 107.841V176.51H336.095V107.841H354.737ZM361.695 122.862V107.841H421.378V122.862H400.723V176.51H382.349V122.862H361.695ZM491.69 142.175C491.69 149.82 490.203 156.269 487.23 161.522C484.257 166.753 480.245 170.72 475.193 173.425C470.141 176.107 464.508 177.449 458.294 177.449C452.035 177.449 446.38 176.096 441.328 173.391C436.299 170.664 432.297 166.686 429.324 161.455C426.374 156.202 424.898 149.775 424.898 142.175C424.898 134.53 426.374 128.093 429.324 122.862C432.297 117.609 436.299 113.641 441.328 110.959C446.38 108.254 452.035 106.902 458.294 106.902C464.508 106.902 470.141 108.254 475.193 110.959C480.245 113.641 484.257 117.609 487.23 122.862C490.203 128.093 491.69 134.53 491.69 142.175ZM472.511 142.175C472.511 138.062 471.963 134.597 470.868 131.781C469.795 128.942 468.197 126.796 466.073 125.343C463.972 123.868 461.379 123.13 458.294 123.13C455.209 123.13 452.605 123.868 450.482 125.343C448.38 126.796 446.782 128.942 445.687 131.781C444.614 134.597 444.077 138.062 444.077 142.175C444.077 146.288 444.614 149.764 445.687 152.603C446.782 155.42 448.38 157.565 450.482 159.041C452.605 160.494 455.209 161.22 458.294 161.22C461.379 161.22 463.972 160.494 466.073 159.041C468.197 157.565 469.795 155.42 470.868 152.603C471.963 149.764 472.511 146.288 472.511 142.175ZM522.043 107.841L520.299 155.051H505.01L503.266 107.841H522.043ZM512.654 177.583C510.061 177.583 507.837 176.677 505.982 174.867C504.149 173.034 503.244 170.81 503.266 168.194C503.244 165.646 504.149 163.467 505.982 161.656C507.837 159.845 510.061 158.94 512.654 158.94C515.113 158.94 517.281 159.845 519.159 161.656C521.059 163.467 522.02 165.646 522.043 168.194C522.02 169.938 521.562 171.525 520.668 172.956C519.796 174.364 518.656 175.493 517.248 176.342C515.84 177.169 514.308 177.583 512.654 177.583Z" fill="white"/>
</svg>