<svg width="247" height="38" viewBox="0 0 247 38" fill="none" xmlns="http://www.w3.org/2000/svg">
<path d="M7.34 8.7367C7.34 9.6467 7.19 11.9367 6.9 15.6267C6.61 19.1867 6.46 21.3467 6.46 22.1267C6.46 24.0067 6.53 26.3667 6.68 29.2367C6.83 32.0967 6.97 33.8067 7.12 34.3567C7.19 34.5467 7.23 34.7767 7.23 35.0367C7.23 35.2667 7.14 35.4267 6.96 35.5267C6.78 35.6267 6.5 35.7167 6.14 35.8167C5.7 35.9467 4.57 36.0067 2.74 36.0067H1.37C0.75 36.0067 0.37 35.9767 0.22 35.9067C0.07 35.8467 0 35.7167 0 35.5167L0.11 33.9667L0.33 27.6167L0.55 17.4267C0.55 16.4567 0.7 14.2567 0.99 10.8267C1.06 10.0167 1.17 8.6967 1.32 6.8767C1.47 5.0467 1.47 3.9767 1.32 3.6467L1.21 2.6267C1.21 1.7867 1.79 1.3667 2.96 1.3667L7.01 1.4167C7.74 1.4167 8.11 1.6467 8.11 2.0967C8.11 2.2567 8.07 2.4467 8 2.6567C7.93 2.8667 7.89 3.0667 7.89 3.2667C7.67 3.9767 7.49 5.8067 7.34 8.7467V8.7367Z" fill="white"/>
<path d="M15.1098 5.38658C15.3498 6.25658 15.6998 7.39658 16.1498 8.78658C16.4698 9.78658 17.3098 12.0366 18.6498 15.5266C19.9898 19.0166 20.8898 21.2666 21.3398 22.2666C21.7598 23.3366 22.3298 24.9666 23.0398 27.1666L24.1098 30.4666L24.7398 29.3466L26.0998 26.6766C26.2898 26.2266 26.8898 25.0466 27.8898 23.1366C29.9898 19.2266 31.3698 16.5066 32.0098 14.9866C32.4898 13.8566 33.1898 12.3366 34.0998 10.4266C34.3298 9.90658 34.6098 9.28658 34.9498 8.55658C35.2898 7.82658 35.5198 7.30658 35.6498 6.97658C35.7098 6.78658 35.9198 6.17658 36.2598 5.15658C36.5998 4.13658 36.9398 3.27658 37.2798 2.56658C37.6198 1.85658 37.8998 1.49658 38.1298 1.49658C38.3898 1.49658 38.5198 1.86658 38.5198 2.61658C38.5198 3.03658 38.4998 3.44658 38.4698 3.85658C38.4398 4.25658 38.3998 4.62658 38.3698 4.94658L38.2198 6.69658C38.1198 8.37658 38.0698 11.4866 38.0698 16.0066C38.0698 17.5866 38.0498 19.6066 37.9998 22.0466C37.9498 24.4866 37.8898 26.1266 37.8298 26.9666L37.7798 34.8766V35.0266C37.7798 35.3466 37.5998 35.5166 37.2498 35.5166C36.3798 35.5166 35.8098 35.4966 35.5498 35.4666C35.3898 35.4366 35.3098 35.3066 35.3098 35.0766L35.3598 34.2566C35.3598 32.8666 35.3898 30.5966 35.4598 27.4466C35.5198 24.2966 35.6098 22.1966 35.6998 21.1666C35.7298 20.3866 35.7498 18.7566 35.7498 16.2666C35.7498 14.9066 35.7298 13.8766 35.6998 13.1666C35.0198 14.3666 34.6198 15.1066 34.4898 15.3966C34.2298 15.8466 33.8598 16.5566 33.3698 17.5266C33.2698 17.7166 33.1598 17.9466 33.0298 18.2066C32.8998 18.4666 32.7498 18.7266 32.5898 18.9866C32.1698 19.8266 31.2298 21.7166 29.7798 24.6566L28.2298 27.8566C27.9098 28.4066 27.3698 29.4066 26.6298 30.8666C25.8898 32.3166 25.3798 33.3066 25.1298 33.8266L24.3498 35.3766C24.1598 35.7966 23.9198 36.1666 23.6498 36.4966C23.3698 36.8166 23.1398 36.9766 22.9498 36.9766C22.7598 36.9766 22.6198 36.9266 22.5398 36.8266C22.4598 36.7266 22.3898 36.5766 22.3198 36.3666C22.2498 36.1566 22.2098 36.0066 22.1698 35.9066C22.0998 35.7166 21.7498 34.6866 21.0998 32.8266C20.4498 30.9666 19.9498 29.6366 19.5998 28.8266C19.1498 27.7266 18.5598 26.2866 17.8498 24.5066C17.1398 22.7266 16.6698 21.4466 16.4398 20.6766C16.1498 19.8666 15.8898 19.0966 15.6598 18.3466L14.9298 16.0666C14.3198 14.2566 13.9598 13.1766 13.8598 12.8166L13.7598 14.6066C13.7298 15.2866 13.7098 16.3166 13.7098 17.7066C13.7098 22.2966 13.6398 25.4966 13.5198 27.3066C13.4898 27.7566 13.4698 28.6866 13.4698 30.0666L13.5198 34.9666V35.1166C13.5198 35.6966 13.2898 35.9566 12.8398 35.8966C12.6798 35.8366 12.4198 35.7966 12.0598 35.7966H11.2798C11.1198 35.7966 11.0398 35.6866 11.0398 35.4566L11.0898 34.5866L10.9898 29.9266L10.8398 19.7866C10.8398 18.1366 10.8698 16.1566 10.9398 13.8466C10.9998 11.5366 11.0698 9.97658 11.1298 9.16658C11.2298 8.09658 11.2998 6.92658 11.3498 5.64658C11.3998 4.36658 11.4198 3.32658 11.4198 2.51658V2.32658C11.4198 1.90658 11.4698 1.67658 11.5698 1.62658C11.6698 1.57658 11.8298 1.56658 12.0498 1.60658H12.4398C12.9598 1.60658 13.3598 1.58658 13.6498 1.55658C14.1998 1.55658 14.5198 2.02658 14.6198 2.96658C14.6798 3.70658 14.8398 4.51658 15.0798 5.38658H15.1098Z" fill="white"/>
<path d="M67.2799 35.3166C67.2799 35.5766 66.9899 35.7066 66.4099 35.7066H62.9199C62.7899 35.7066 62.6599 35.5966 62.5299 35.3666C62.3999 35.1366 62.2899 34.9166 62.1899 34.6866C62.0899 34.4566 62.0099 34.2666 61.9499 34.1066C61.7899 33.7866 61.4899 33.0366 61.0499 31.8766C60.6099 30.7166 60.2799 29.7866 60.0599 29.1166C59.9599 28.7966 59.7699 28.3166 59.4799 27.6866C59.1899 27.0566 58.9799 26.6166 58.8499 26.3566C58.7199 25.9666 58.5999 25.7066 58.4899 25.5766C58.3799 25.4466 58.2099 25.3866 57.9799 25.3866C57.7499 25.3866 57.4699 25.4066 57.1299 25.4366C56.7899 25.4666 56.4299 25.5066 56.0399 25.5366C55.7799 25.6066 54.9699 25.6366 53.6099 25.6366C52.6699 25.6366 51.7499 25.6666 50.8499 25.7366C50.5599 25.7666 50.0399 25.7866 49.2999 25.7866L46.7299 25.7366C46.5699 25.7366 46.4499 25.7966 46.3699 25.9266C46.2899 26.0566 46.2299 26.2066 46.1999 26.3866C46.1699 26.5666 46.1299 26.7066 46.0999 26.7966L45.8099 28.0066C45.7099 28.4566 45.5899 28.9866 45.4499 29.5866C45.2999 30.1866 45.1799 30.7466 45.0899 31.2566L44.5599 33.3466L44.1699 34.7566C44.0699 35.1466 43.9799 35.3966 43.8999 35.5066C43.8199 35.6166 43.6999 35.6766 43.5399 35.6766H40.6799C40.5199 35.6766 40.4399 35.6166 40.4399 35.4866C40.4399 35.4266 40.4999 35.1966 40.6299 34.8066C40.8899 34.1966 41.1099 33.5766 41.3099 32.9666C42.5099 28.9566 43.2199 26.3366 43.4399 25.1066C43.7299 23.4866 44.3299 21.4066 45.2299 18.8466C45.5199 17.7466 45.7999 16.7466 46.0499 15.8366C46.1499 15.3866 46.2899 14.8366 46.4899 14.1866C47.0999 11.9266 47.7199 9.80656 48.3299 7.83656L49.5399 3.95656C49.7999 2.95656 50.1199 1.91656 50.5099 0.856557C50.6999 0.376557 50.9299 0.256557 51.1899 0.516557C51.3799 0.646557 51.5299 0.876557 51.6299 1.19656C51.7299 1.51656 51.7899 1.74656 51.8199 1.87656C51.9199 2.26656 52.7699 4.20656 54.3899 7.69656C55.0399 9.02656 55.7299 10.7566 56.4799 12.8866C56.7999 13.8266 57.6899 15.8466 59.1499 18.9466C59.8899 20.4666 60.3799 21.5166 60.5999 22.0966C61.1199 23.2266 62.5099 25.9766 64.7699 30.3466L65.3499 31.5566C66.0899 33.2066 66.6599 34.2566 67.0499 34.7066C67.2099 35.0266 67.2899 35.2366 67.2899 35.3366L67.2799 35.3166ZM54.9099 18.6266C55.0699 18.6266 55.1999 18.6066 55.2999 18.5766C55.3999 18.5466 55.4499 18.4966 55.4499 18.4266C55.4499 18.3566 55.3999 18.2366 55.2999 18.0366C55.1399 17.7466 54.7699 16.9266 54.1799 15.5866C53.5999 14.2466 53.1899 13.2366 52.9699 12.5566C52.6499 11.7766 52.3999 11.1366 52.2199 10.6166C52.0399 10.0966 51.8999 9.74656 51.8099 9.54656C51.7399 9.38656 51.6699 9.22656 51.5899 9.06656C51.5099 8.90656 51.4399 8.77656 51.3699 8.67656C51.2999 8.57656 51.2399 8.52656 51.1799 8.52656C51.0799 8.52656 50.9799 8.76656 50.8599 9.25656C50.7499 9.73656 50.6599 10.1166 50.5899 10.3766C50.0099 12.2566 49.5899 13.6766 49.3299 14.6466C49.1999 15.1366 49.0099 15.7266 48.7699 16.4166C48.5299 17.1166 48.3599 17.5866 48.2599 17.8466C48.1599 18.1666 48.1099 18.4266 48.1099 18.6266C48.1099 18.8266 48.2599 18.9166 48.5499 18.9166C49.2299 18.9166 50.2699 18.8966 51.6799 18.8466C53.0899 18.7966 53.9699 18.7466 54.3199 18.6766C54.5499 18.6466 54.7399 18.6266 54.8999 18.6266H54.9099Z" fill="white"/>
<path d="M84.0802 2.42687C85.2302 3.16687 86.0302 3.85688 86.4802 4.48688C86.9302 5.11688 87.2202 5.49687 87.3502 5.62687C87.6102 5.91687 87.7402 6.22688 87.7402 6.54688C87.7402 6.93687 87.5902 7.27687 87.3002 7.56687C87.0102 7.85687 86.6502 8.17687 86.2102 8.53687C85.7702 8.89687 85.3801 9.19687 85.0201 9.45687C84.8601 9.55687 84.7102 9.60688 84.5802 9.60688C84.2902 9.60688 84.0002 9.45687 83.7102 9.16687C83.6402 9.10687 83.1802 8.55687 82.3002 7.54688C81.4302 6.52688 80.1202 6.01687 78.3702 6.01687C77.0402 6.01687 75.9002 6.71687 74.9302 8.12687C73.9602 9.53687 73.2202 11.2269 72.7202 13.2169C72.2202 15.2069 71.9702 17.0569 71.9702 18.7669C71.9702 20.4769 72.2302 22.4369 72.7502 24.4369C73.2702 26.4469 74.1002 28.1569 75.2502 29.5769C76.4002 30.9969 77.8401 31.7069 79.5901 31.7069C81.9201 31.7069 83.7002 30.8069 84.9202 28.9869C85.4402 28.1469 85.7802 27.2269 85.9402 26.2269H84.5302L82.3502 26.1769L77.4501 26.1269C76.9001 26.1269 76.6301 25.8669 76.6301 25.3469V23.4569C76.6301 23.1369 76.6802 22.9269 76.7802 22.8469C76.8802 22.7669 77.0102 22.7269 77.1702 22.7269H79.4002L89.3401 22.4869C89.6301 22.4869 89.8502 22.6369 89.9902 22.9269C90.1302 23.2169 90.1902 23.6069 90.1602 24.0869C90.1602 25.2169 89.9502 26.6769 89.5302 28.4769C89.1102 30.2669 88.0802 32.0169 86.4302 33.7169C84.7802 35.4169 82.3202 36.2669 79.0602 36.2669C76.6402 36.2669 74.5602 35.3469 72.8302 33.5069C71.1002 31.6669 69.8101 29.2969 68.9501 26.3969C68.0901 23.5069 67.6602 20.5369 67.6602 17.4969C67.6602 14.6569 68.1902 11.9869 69.2402 9.49687C70.2902 7.00687 71.7002 5.01688 73.4602 3.52688C75.2202 2.03688 77.0902 1.29688 79.0602 1.29688C81.2602 1.29688 82.9302 1.66687 84.0802 2.41687V2.42687Z" fill="white"/>
<path d="M95.4302 1.48674C95.8302 1.46674 96.1802 1.46674 96.4702 1.46674C97.1802 1.46674 97.7002 1.48674 98.0202 1.51674C98.4102 1.54674 98.6802 1.62674 98.8402 1.75674C99.0002 1.88674 99.0802 2.06674 99.0802 2.28674C99.0802 2.44674 99.0602 2.62674 99.0302 2.81674C99.0002 3.00674 98.9602 3.18674 98.9302 3.34674C98.5702 6.09674 98.3802 8.92674 98.3502 11.8367C98.3202 12.6767 98.3002 13.9667 98.3002 15.7167L98.3502 21.5867C98.3802 22.0667 98.4002 22.5767 98.4002 23.0867L98.4502 25.0267C98.5102 26.7067 98.5502 27.9567 98.5502 28.7567C98.5502 29.3667 98.5302 29.7467 98.5002 29.8767C98.4702 30.0067 98.4502 30.3767 98.4502 30.9967L98.5002 33.6667C98.5302 34.0567 98.5502 34.5367 98.5502 35.1167C98.5802 35.5367 98.4602 35.8067 98.1902 35.9167C97.9102 36.0267 97.5502 36.0667 97.1002 36.0367H92.6902C92.2102 36.0667 91.9002 35.9667 91.7702 35.7267C91.6402 35.4867 91.5602 35.0867 91.5302 34.5367C91.4602 34.3067 91.5002 33.7167 91.6302 32.7467C91.7602 31.8467 91.8202 31.0667 91.8202 30.4167C91.8202 30.1867 91.9302 28.0067 92.1602 23.8667C92.3502 20.8267 92.4502 19.1667 92.4502 18.8667L92.5502 14.1167L92.6502 9.70674L92.7502 7.08674L92.8502 5.33674V3.29674C92.8502 2.03674 93.1702 1.40674 93.8202 1.40674C93.9802 1.40674 94.1102 1.42674 94.2102 1.45674C94.6302 1.48674 95.0402 1.49674 95.4502 1.47674L95.4302 1.48674Z" fill="white"/>
<path d="M122.04 1.70672C122.04 1.09672 122.34 0.716717 122.94 0.586717C123.54 0.456717 124.42 0.396717 125.57 0.396717C126.59 0.396717 127.89 0.356717 129.49 0.276717C131.08 0.196717 132.32 0.106717 133.2 0.00671662C133.85 -0.0232834 134.31 0.0467166 134.59 0.226717C134.87 0.406717 135.01 0.706717 135.01 1.12672C135.01 1.25672 134.96 1.60672 134.87 2.19672C134.78 2.67672 134.73 5.89672 134.73 11.8467V22.8067C134.73 24.4567 134.76 26.2767 134.83 28.2667C134.9 30.2567 134.98 32.0467 135.07 33.6267C135.16 35.2067 135.21 35.6467 135.21 34.9367C135.21 35.4567 134.84 35.7167 134.1 35.7167C133.78 35.7167 133.5 35.6967 133.27 35.6667C133.08 35.6367 132.72 35.6167 132.16 35.6167C131.6 35.6167 130.73 35.6467 129.53 35.7167C128.24 35.7767 127.33 35.8167 126.83 35.8167C125.95 35.8167 125.29 35.6867 124.85 35.4267C124.41 35.1667 123.96 34.6967 123.5 34.0167L122.32 32.3667C120.93 30.1967 119.71 28.5067 118.65 27.2767C118.05 26.5667 116.52 24.6067 114.08 21.4067L111.03 17.3767V20.3367C111.03 20.5967 111.02 20.9167 111 21.3067C110.98 21.6967 110.99 22.1267 111.03 22.6167C111.03 24.2967 111.06 26.4967 111.13 29.2167C111.2 31.9367 111.3 33.5667 111.44 34.1167C111.49 34.2767 111.51 34.4767 111.51 34.6967C111.51 35.0167 111.42 35.2267 111.23 35.3067C111.04 35.3867 110.7 35.4167 110.19 35.3767C109.45 35.3767 108.58 35.4067 107.59 35.4767C106.6 35.5367 105.66 35.6067 104.78 35.6667C104.09 35.7267 103.64 35.6467 103.43 35.4267C103.22 35.1967 103.14 34.6967 103.19 33.9267C103.19 32.7667 103.12 30.7067 102.98 27.7667C102.79 24.6967 102.68 22.0267 102.63 19.7667C102.63 17.4667 102.7 15.1467 102.84 12.7867C102.93 9.81672 102.98 7.77672 102.98 6.67672C102.98 5.18672 102.91 4.10672 102.77 3.42672C102.68 2.84672 102.63 2.47672 102.63 2.30672C102.63 1.72672 102.77 1.32672 103.05 1.11672C103.33 0.906717 103.7 0.796717 104.16 0.796717C104.39 0.796717 104.85 0.796717 105.55 0.816717C106.24 0.836717 107.24 0.726717 108.53 0.496717C109.04 0.436717 109.55 0.396717 110.05 0.396717C110.33 0.396717 110.72 0.416717 111.23 0.446717C111.74 0.476717 112.41 0.496717 113.24 0.496717C114.3 0.496717 115.19 0.786717 115.91 1.36672C116.63 1.94672 117.4 2.77672 118.23 3.83672L118.92 4.70672C119.47 5.41672 120.14 6.17672 120.93 6.98672L121.97 8.10672V5.43672C121.97 3.43672 121.99 2.18672 122.04 1.70672Z" fill="white"/>
<path d="M165.66 35.3166C165.66 35.5766 165.37 35.7066 164.79 35.7066H161.3C161.17 35.7066 161.04 35.5966 160.91 35.3666C160.78 35.1366 160.67 34.9166 160.57 34.6866C160.47 34.4566 160.39 34.2666 160.33 34.1066C160.17 33.7866 159.87 33.0366 159.43 31.8766C158.99 30.7166 158.66 29.7866 158.44 29.1166C158.34 28.7966 158.15 28.3166 157.86 27.6866C157.57 27.0566 157.36 26.6166 157.23 26.3566C157.1 25.9666 156.98 25.7066 156.87 25.5766C156.76 25.4466 156.59 25.3866 156.36 25.3866C156.13 25.3866 155.85 25.4066 155.51 25.4366C155.17 25.4666 154.81 25.5066 154.42 25.5366C154.16 25.6066 153.35 25.6366 151.99 25.6366C151.05 25.6366 150.13 25.6666 149.23 25.7366C148.94 25.7666 148.42 25.7866 147.68 25.7866L145.11 25.7366C144.95 25.7366 144.83 25.7966 144.75 25.9266C144.67 26.0566 144.61 26.2066 144.58 26.3866C144.55 26.5666 144.51 26.7066 144.48 26.7966L144.19 28.0066C144.09 28.4566 143.97 28.9866 143.83 29.5866C143.68 30.1866 143.56 30.7466 143.47 31.2566L142.94 33.3466L142.55 34.7566C142.45 35.1466 142.36 35.3966 142.28 35.5066C142.2 35.6166 142.08 35.6766 141.92 35.6766H139.06C138.9 35.6766 138.82 35.6166 138.82 35.4866C138.82 35.4266 138.88 35.1966 139.01 34.8066C139.27 34.1966 139.49 33.5766 139.69 32.9666C140.89 28.9566 141.6 26.3366 141.82 25.1066C142.11 23.4866 142.71 21.4066 143.61 18.8466C143.9 17.7466 144.18 16.7466 144.43 15.8366C144.53 15.3866 144.67 14.8366 144.87 14.1866C145.48 11.9266 146.1 9.80656 146.71 7.83656L147.92 3.95656C148.18 2.95656 148.5 1.91656 148.89 0.856557C149.08 0.376557 149.31 0.256557 149.57 0.516557C149.76 0.646557 149.91 0.876557 150.01 1.19656C150.11 1.51656 150.17 1.74656 150.2 1.87656C150.3 2.26656 151.15 4.20656 152.77 7.69656C153.42 9.02656 154.11 10.7566 154.86 12.8866C155.18 13.8266 156.07 15.8466 157.53 18.9466C158.27 20.4666 158.76 21.5166 158.98 22.0966C159.5 23.2266 160.89 25.9766 163.15 30.3466L163.73 31.5566C164.47 33.2066 165.04 34.2566 165.43 34.7066C165.59 35.0266 165.67 35.2366 165.67 35.3366L165.66 35.3166ZM153.29 18.6266C153.45 18.6266 153.58 18.6066 153.68 18.5766C153.78 18.5466 153.83 18.4966 153.83 18.4266C153.83 18.3566 153.78 18.2366 153.68 18.0366C153.52 17.7466 153.15 16.9266 152.56 15.5866C151.98 14.2466 151.57 13.2366 151.35 12.5566C151.03 11.7766 150.78 11.1366 150.6 10.6166C150.42 10.0966 150.28 9.74656 150.19 9.54656C150.12 9.38656 150.05 9.22656 149.97 9.06656C149.89 8.90656 149.82 8.77656 149.75 8.67656C149.68 8.57656 149.62 8.52656 149.56 8.52656C149.46 8.52656 149.36 8.76656 149.24 9.25656C149.13 9.73656 149.04 10.1166 148.97 10.3766C148.39 12.2566 147.97 13.6766 147.71 14.6466C147.58 15.1366 147.39 15.7266 147.15 16.4166C146.91 17.1166 146.74 17.5866 146.64 17.8466C146.54 18.1666 146.49 18.4266 146.49 18.6266C146.49 18.8266 146.64 18.9166 146.93 18.9166C147.61 18.9166 148.65 18.8966 150.06 18.8466C151.47 18.7966 152.35 18.7466 152.7 18.6766C152.93 18.6466 153.12 18.6266 153.28 18.6266H153.29Z" fill="white"/>
<path d="M192.54 35.4569C192.54 35.5169 192.46 35.6369 192.3 35.7969C192.01 35.9869 191.28 36.0869 190.12 36.0869C189.28 36.0869 188.75 36.0269 188.52 35.9169C188.29 35.8069 188.12 35.6169 188.01 35.3569C187.9 35.0969 187.81 34.9069 187.74 34.7769C187.64 34.5869 187.25 34.0269 186.55 33.1069C185.85 32.1869 185.33 31.4869 184.97 30.9969C183.26 28.7969 181.77 26.8069 180.51 25.0269C179.73 23.9269 178.29 22.0369 176.19 19.3569L175.41 18.3869L172.06 14.2169L171.87 16.1569C171.74 17.1269 171.71 18.2869 171.77 19.6469C171.87 20.5569 171.93 22.8969 171.96 26.6769C171.99 30.4569 172.01 33.2269 172.01 34.9669C172.01 35.4869 171.82 35.8169 171.43 35.9569C171.04 36.0969 170.59 36.1769 170.07 36.1769C169.84 36.1769 169.7 36.0769 169.63 35.8869C169.56 35.6969 169.52 35.4869 169.51 35.2569C169.49 35.0269 169.49 34.8869 169.49 34.8169C169.42 34.2969 169.39 33.5369 169.39 32.5369C169.39 31.8869 169.41 31.4069 169.44 31.0869C169.47 29.3369 169.52 26.2969 169.59 21.9469C169.65 17.5969 169.69 13.6969 169.69 10.2369C169.69 6.51693 169.64 4.35693 169.54 3.73693C169.51 3.47693 169.49 3.13693 169.49 2.71693C169.49 2.23693 169.56 1.92693 169.71 1.79693C169.86 1.66693 170.07 1.60693 170.36 1.60693C171.01 1.60693 171.64 1.62693 172.25 1.65693L177.54 1.75693C179.48 1.75693 181.5 2.09693 183.6 2.77693C185.7 3.45693 186.75 4.71693 186.75 6.55693C186.75 8.30693 186.1 9.65693 184.81 10.6269C183.52 11.5969 182.07 12.2569 180.47 12.6169C178.87 12.9769 177.47 13.1469 176.27 13.1469C175.85 13.1469 175.62 13.1269 175.59 13.0969C175.78 13.2869 177.06 15.0069 179.42 18.2369C186.53 27.7769 190.46 32.9169 191.21 33.6569C192.08 34.5269 192.52 35.1269 192.52 35.4469L192.54 35.4569ZM174.36 11.1169C176.23 11.0569 177.69 10.9269 178.73 10.7269C180.22 10.4669 181.34 10.1169 182.1 9.65693C182.86 9.20693 183.24 8.49693 183.24 7.52693C183.24 6.87693 182.9 6.32693 182.22 5.85693C181.54 5.38693 180.72 5.03693 179.77 4.78693C178.82 4.54693 177.98 4.42693 177.27 4.42693C176.46 4.39693 175.33 4.37693 173.87 4.37693H172.22L171.93 11.1669C173 11.1669 173.8 11.1469 174.35 11.1169H174.36Z" fill="white"/>
<path d="M202.32 1.48674C202.84 1.46674 203.29 1.46674 203.67 1.46674C204.59 1.46674 205.26 1.48674 205.68 1.51674C206.18 1.54674 206.54 1.62674 206.75 1.75674C206.96 1.88674 207.06 2.06674 207.06 2.28674C207.06 2.44674 207.04 2.62674 207 2.81674C206.96 3.00674 206.92 3.18674 206.87 3.34674C206.41 6.09674 206.16 8.92674 206.12 11.8367C206.08 12.6767 206.06 13.9667 206.06 15.7167L206.12 21.5867C206.16 22.0667 206.18 22.5767 206.18 23.0867L206.24 25.0267C206.32 26.7067 206.37 27.9567 206.37 28.7567C206.37 29.3667 206.35 29.7467 206.31 29.8767C206.27 30.0067 206.25 30.3767 206.25 30.9967L206.31 33.6667C206.35 34.0567 206.37 34.5367 206.37 35.1167C206.41 35.5367 206.25 35.8067 205.9 35.9167C205.54 36.0267 205.07 36.0667 204.49 36.0367H198.78C198.15 36.0667 197.75 35.9667 197.59 35.7267C197.42 35.4867 197.32 35.0867 197.28 34.5367C197.2 34.3067 197.24 33.7167 197.41 32.7467C197.58 31.8467 197.66 31.0667 197.66 30.4167C197.66 30.1867 197.81 28.0067 198.1 23.8667C198.35 20.8267 198.48 19.1667 198.48 18.8667L198.61 14.1167L198.74 9.70674L198.87 7.08674L199 5.33674V3.29674C199 2.03674 199.42 1.40674 200.25 1.40674C200.46 1.40674 200.63 1.42674 200.75 1.45674C201.29 1.48674 201.83 1.49674 202.35 1.47674L202.32 1.48674Z" fill="white"/>
<path d="M233.41 2.90678C235.92 3.54678 238.01 4.43678 239.68 5.57678C241.34 6.71678 242.5 7.73678 243.16 8.60678C244.26 10.0768 245.18 12.0468 245.93 14.5168C246.68 16.9868 246.53 19.9168 245.48 23.3068C244.43 26.6968 241.73 30.0068 237.39 33.2468C231.43 37.6868 225.49 38.5568 219.56 35.8468C216.91 34.6068 214.56 32.7768 212.52 30.3368C210.96 28.2468 210.14 25.7668 210.06 22.8868C209.98 20.0068 210.6 17.1868 211.92 14.4268C213.24 11.6668 215.05 9.42678 217.35 7.71678C219.43 6.16678 221.01 5.04678 222.09 4.34678C223.17 3.64678 224.25 3.17678 225.34 2.91678C228.2 2.25678 230.89 2.25678 233.41 2.88678V2.90678ZM241.79 21.9568C242.09 18.4668 241.05 15.1268 238.68 11.9368C237.23 9.98678 235.45 8.51678 233.34 7.52678C231.23 6.53678 229.01 6.13678 226.68 6.34678C224.35 6.55678 222.14 7.42678 220.06 8.98678L218.63 10.0468C217.86 10.6268 217.25 11.2068 216.8 11.8068C216.35 12.3968 216.01 13.0368 215.8 13.7168C215.2 15.3868 214.74 16.8468 214.42 18.0968C214.1 19.3568 214.01 20.9268 214.16 22.8068C214.31 24.6868 215.01 26.4768 216.27 28.1668C217.76 30.1668 219.51 31.7468 221.53 32.9168C223.55 34.0868 225.77 34.6168 228.19 34.4868C230.61 34.3668 233.1 33.3568 235.65 31.4468C239.45 28.6068 241.51 25.4468 241.81 21.9468L241.79 21.9568Z" fill="white"/>
</svg>
