<svg width="687" height="362" viewBox="0 0 687 362" fill="none" xmlns="http://www.w3.org/2000/svg">
<path d="M146.26 40.5315C146.26 44.9115 145.55 56.0115 144.14 73.8315C142.72 91.0315 142.02 101.501 142.02 105.251C142.02 114.321 142.37 125.771 143.08 139.601C143.78 153.431 144.49 161.681 145.2 164.341C145.55 165.281 145.73 166.371 145.73 167.621C145.73 168.721 145.28 169.501 144.41 169.971C143.52 170.441 142.2 170.911 140.44 171.381C138.32 172.001 132.84 172.321 124.02 172.321H117.4C114.4 172.321 112.54 172.161 111.84 171.851C111.13 171.541 110.78 170.911 110.78 169.971L111.31 162.471L112.37 131.751L113.43 82.5115C113.43 77.8215 114.13 67.1915 115.55 50.6215C115.9 46.7115 116.43 40.3415 117.14 31.5115C117.84 22.6815 117.84 17.4815 117.14 15.9115L116.61 10.9915C116.61 6.93146 119.43 4.89146 125.08 4.89146L144.67 5.12146C148.2 5.12146 149.97 6.22146 149.97 8.40146C149.97 9.18146 149.79 10.0815 149.44 11.1015C149.08 12.1215 148.91 13.0915 148.91 14.0315C147.85 17.4715 146.97 26.3015 146.26 40.5315Z" fill="#E63916"/>
<path d="M183.86 24.3515C185.03 28.5715 186.71 34.0515 188.9 40.7615C190.46 45.6115 194.49 56.4715 200.98 73.3615C207.47 90.2415 211.8 101.111 213.99 105.961C216.02 111.121 218.76 119.011 222.2 129.641L227.36 145.591L230.41 140.201L236.98 127.301C237.92 125.111 240.81 119.411 245.66 110.181C255.82 91.2715 262.46 78.1415 265.59 70.7815C267.93 65.3115 271.29 57.9615 275.67 48.7415C276.76 46.2415 278.13 43.2315 279.77 39.7115C281.41 36.1915 282.54 33.6515 283.17 32.0915C283.48 31.1515 284.46 28.2215 286.1 23.3015C287.74 18.3815 289.38 14.1915 291.02 10.7515C292.66 7.31146 294.03 5.59146 295.12 5.59146C296.37 5.59146 297 7.39146 297 10.9815C297 13.0115 296.92 15.0115 296.77 16.9615C296.61 18.9215 296.45 20.6815 296.3 22.2415L295.6 30.6815C295.13 38.8115 294.9 53.8215 294.9 75.7015C294.9 83.3615 294.78 93.0915 294.55 104.891C294.32 116.691 294.04 124.631 293.73 128.691L293.5 166.911V167.611C293.5 169.171 292.64 169.961 290.92 169.961C286.7 169.961 283.96 169.881 282.71 169.731C281.93 169.581 281.54 168.951 281.54 167.851L281.77 163.861C281.77 157.141 281.92 146.161 282.24 130.911C282.55 115.671 282.94 105.551 283.41 100.541C283.56 96.7915 283.64 88.9015 283.64 76.8615C283.64 70.2915 283.56 65.2915 283.41 61.8515C280.13 67.6415 278.17 71.2315 277.55 72.6415C276.3 74.8315 274.5 78.2715 272.16 82.9615C271.69 83.9015 271.14 84.9915 270.52 86.2415C269.89 87.4915 269.19 88.7415 268.41 89.9915C266.38 94.0615 261.84 103.201 254.81 117.421L247.31 132.901C245.75 135.561 243.17 140.401 239.57 147.441C235.97 154.471 233.55 159.241 232.3 161.741L228.55 169.241C227.61 171.271 226.48 173.071 225.15 174.631C223.82 176.191 222.69 176.971 221.75 176.971C220.81 176.971 220.15 176.741 219.76 176.271C219.37 175.801 219.02 175.061 218.71 174.041C218.39 173.021 218.16 172.281 218.01 171.811C217.69 170.871 215.98 165.911 212.85 156.921C209.72 147.931 207.3 141.481 205.58 137.571C203.39 132.261 200.57 125.301 197.14 116.701C193.7 108.111 191.43 101.931 190.34 98.1815C188.93 94.2715 187.68 90.5215 186.59 86.9215L183.07 75.9015C180.1 67.1515 178.38 61.9115 177.91 60.1915L177.44 68.8715C177.28 72.1515 177.2 77.1615 177.2 83.8815C177.2 106.081 176.88 121.561 176.26 130.311C176.1 132.501 176.03 136.961 176.03 143.681L176.26 167.361V168.061C176.26 170.871 175.16 172.121 172.98 171.811C172.2 171.501 170.95 171.341 169.23 171.341H165.48C164.7 171.341 164.31 170.791 164.31 169.701L164.54 165.481L164.07 142.971L163.37 93.9615C163.37 85.9915 163.52 76.4115 163.84 65.2415C164.15 54.0615 164.46 46.5215 164.78 42.6115C165.25 37.4515 165.6 31.7915 165.83 25.6115C166.06 19.4415 166.18 14.4015 166.18 10.4915V9.55146C166.18 7.52146 166.41 6.38146 166.88 6.15146C167.35 5.92146 168.13 5.88146 169.22 6.03146H171.1C173.6 6.03146 175.56 5.95146 176.96 5.80146C179.62 5.80146 181.18 8.07146 181.65 12.6015C181.96 16.2015 182.7 20.1015 183.88 24.3215L183.86 24.3515Z" fill="#E63916"/>
<path d="M436.05 169.031C436.05 170.281 434.64 170.911 431.83 170.911H414.95C414.32 170.911 413.7 170.361 413.07 169.271C412.44 168.181 411.9 167.081 411.43 165.991C410.96 164.901 410.57 163.961 410.26 163.181C409.48 161.621 408.03 158.021 405.92 152.391C403.81 146.761 402.21 142.311 401.11 139.021C400.64 137.461 399.7 135.151 398.3 132.101C396.89 129.051 395.87 126.901 395.25 125.651C394.62 123.771 394.04 122.521 393.49 121.901C392.94 121.281 392.12 120.961 391.03 120.961C389.94 120.961 388.57 121.041 386.93 121.191C385.29 121.351 383.53 121.511 381.65 121.661C380.4 121.981 376.49 122.131 369.92 122.131C365.38 122.131 360.93 122.291 356.55 122.601C355.14 122.761 352.64 122.831 349.05 122.831L336.62 122.601C335.84 122.601 335.25 122.911 334.86 123.541C334.47 124.171 334.19 124.911 334.04 125.771C333.88 126.631 333.72 127.291 333.57 127.761L332.16 133.621C331.69 135.811 331.1 138.351 330.4 141.241C329.7 144.131 329.11 146.831 328.64 149.331L326.06 159.411L324.18 166.211C323.71 168.091 323.28 169.301 322.89 169.841C322.5 170.391 321.91 170.661 321.13 170.661H307.3C306.52 170.661 306.13 170.351 306.13 169.721C306.13 169.411 306.44 168.311 307.07 166.441C308.32 163.471 309.41 160.501 310.35 157.531C316.13 138.151 319.57 125.491 320.67 119.541C322.08 111.721 324.97 101.641 329.35 89.2915C330.76 83.9815 332.08 79.1315 333.34 74.7515C333.81 72.5615 334.51 69.9115 335.45 66.7815C338.42 55.8415 341.39 45.6015 344.36 36.0615L350.22 17.3015C351.47 12.4615 353.03 7.45146 354.91 2.29146C355.85 -0.0485394 356.94 -0.598539 358.19 0.651461C359.13 1.28146 359.83 2.37146 360.3 3.93146C360.77 5.49146 361.08 6.59146 361.24 7.21146C361.71 9.09146 365.85 18.4715 373.67 35.3515C376.8 41.7615 380.16 50.1215 383.75 60.4415C385.31 64.9815 389.61 74.7415 396.65 89.7515C400.24 97.1015 402.59 102.181 403.68 104.991C406.18 110.461 412.9 123.751 423.85 144.851L426.66 150.711C430.25 158.681 432.99 163.761 434.87 165.951C435.65 167.511 436.04 168.531 436.04 169.001L436.05 169.031ZM376.26 88.3715C377.04 88.3715 377.67 88.2915 378.14 88.1415C378.61 87.9915 378.84 87.7515 378.84 87.4415C378.84 87.1315 378.61 86.5015 378.14 85.5615C377.36 84.1515 375.56 80.2115 372.75 73.7215C369.94 67.2315 367.98 62.3515 366.89 59.0615C365.33 55.3115 364.11 52.1815 363.26 49.6815C362.4 47.1815 361.74 45.4615 361.27 44.5215C360.95 43.7415 360.6 42.9615 360.22 42.1815C359.83 41.4015 359.48 40.7715 359.16 40.3015C358.84 39.8315 358.53 39.6015 358.22 39.6015C357.75 39.6015 357.24 40.7715 356.7 43.1215C356.15 45.4615 355.72 47.2615 355.41 48.5115C352.6 57.5815 350.56 64.4615 349.31 69.1515C348.68 71.5015 347.79 74.3515 346.61 77.7115C345.44 81.0715 344.62 83.3815 344.15 84.6315C343.68 86.1915 343.45 87.4415 343.45 88.3815C343.45 89.3215 344.15 89.7915 345.56 89.7915C348.84 89.7915 353.88 89.6715 360.68 89.4415C367.48 89.2115 371.74 88.9315 373.46 88.6215C374.55 88.4715 375.49 88.3915 376.27 88.3915L376.26 88.3715Z" fill="#E63916"/>
<path d="M517.3 10.0415C522.85 13.6415 526.72 16.9615 528.91 20.0115C531.1 23.0615 532.5 24.9015 533.13 25.5215C534.38 26.9315 535.01 28.4115 535.01 29.9815C535.01 31.8615 534.31 33.5015 532.9 34.9015C531.49 36.3115 529.73 37.8715 527.62 39.5915C525.51 41.3115 523.59 42.8015 521.87 44.0515C521.09 44.5215 520.38 44.7515 519.76 44.7515C518.35 44.7515 516.95 44.0515 515.54 42.6415C515.22 42.3315 512.96 39.7115 508.74 34.7815C504.52 29.8615 498.19 27.3915 489.75 27.3915C483.34 27.3915 477.79 30.7915 473.1 37.5915C468.41 44.3915 464.85 52.6015 462.43 62.2115C460 71.8215 458.8 80.7815 458.8 89.0615C458.8 97.3415 460.05 106.801 462.55 116.491C465.05 126.191 469.08 134.471 474.63 141.351C480.18 148.231 487.18 151.671 495.62 151.671C506.88 151.671 515.47 147.291 521.41 138.541C523.91 134.481 525.55 130.021 526.33 125.171H519.53L508.98 124.941L485.3 124.711C482.64 124.711 481.31 123.461 481.31 120.961V111.821C481.31 110.261 481.54 109.281 482.01 108.891C482.48 108.501 483.1 108.301 483.89 108.301H494.68L542.75 107.131C544.16 107.131 545.21 107.831 545.92 109.241C546.63 110.651 546.9 112.521 546.74 114.871C546.74 120.341 545.72 127.411 543.69 136.091C541.66 144.771 536.66 153.211 528.68 161.421C520.71 169.631 508.82 173.731 493.04 173.731C481.32 173.731 471.27 169.271 462.91 160.361C454.55 151.451 448.29 140.001 444.15 126.011C440.01 112.021 437.94 97.6815 437.94 82.9815C437.94 69.2315 440.48 56.3315 445.56 44.2915C450.64 32.2515 457.44 22.6415 465.96 15.4515C474.48 8.26146 483.51 4.66146 493.04 4.66146C503.67 4.66146 511.76 6.46146 517.31 10.0515L517.3 10.0415Z" fill="#E63916"/>
<path d="M572.17 5.47146C574.12 5.39146 575.8 5.35146 577.21 5.35146C580.65 5.35146 583.15 5.43146 584.71 5.58146C586.59 5.74146 587.91 6.13146 588.7 6.75146C589.48 7.38146 589.87 8.24146 589.87 9.33146C589.87 10.1115 589.79 10.9715 589.64 11.9115C589.48 12.8515 589.32 13.7115 589.17 14.4915C587.45 27.7815 586.51 41.4615 586.36 55.5315C586.2 59.6015 586.13 65.8515 586.13 74.2915L586.36 102.661C586.51 105.001 586.59 107.431 586.59 109.931L586.82 119.311C587.13 127.441 587.29 133.461 587.29 137.371C587.29 140.341 587.21 142.141 587.06 142.761C586.9 143.391 586.83 145.191 586.83 148.151L587.06 161.051C587.21 162.931 587.29 165.271 587.29 168.081C587.44 170.111 586.86 171.401 585.53 171.951C584.2 172.501 582.44 172.691 580.25 172.541H558.91C556.57 172.691 555.08 172.191 554.45 171.021C553.82 169.851 553.43 167.931 553.28 165.271C552.96 164.181 553.12 161.281 553.75 156.591C554.37 152.211 554.69 148.461 554.69 145.331C554.69 144.241 555.24 133.691 556.33 113.671C557.27 98.9815 557.74 90.9215 557.74 89.5215L558.21 66.5415L558.68 45.2015L559.15 32.5415L559.62 24.1015V14.2515C559.62 8.15146 561.18 5.11146 564.31 5.11146C565.09 5.11146 565.72 5.19146 566.19 5.34146C568.22 5.50146 570.21 5.54146 572.17 5.46146V5.47146Z" fill="#E63916"/>
<path d="M93.86 196.241C93.86 193.271 95.31 191.471 98.22 190.851C101.12 190.231 105.37 189.911 110.95 189.911C115.86 189.911 122.18 189.721 129.88 189.321C137.59 188.931 143.56 188.501 147.81 188.031C150.94 187.881 153.17 188.231 154.51 189.091C155.85 189.951 156.52 191.401 156.52 193.431C156.52 194.061 156.29 195.771 155.85 198.591C155.4 200.931 155.18 216.491 155.18 245.251V298.241C155.18 306.211 155.35 315.011 155.68 324.621C156.01 334.231 156.4 342.871 156.85 350.531C157.3 358.191 157.52 360.301 157.52 356.861C157.52 359.361 155.73 360.611 152.16 360.611C150.59 360.611 149.25 360.531 148.14 360.381C147.24 360.231 145.46 360.151 142.78 360.151C140.1 360.151 135.85 360.311 130.05 360.621C123.79 360.931 119.44 361.091 116.98 361.091C112.73 361.091 109.55 360.461 107.43 359.211C105.3 357.961 103.13 355.691 100.89 352.411L95.19 344.441C88.49 333.971 82.57 325.761 77.43 319.821C74.52 316.381 67.15 306.921 55.31 291.451L40.57 271.991V286.301C40.57 287.551 40.51 289.111 40.4 290.991C40.28 292.871 40.34 294.981 40.57 297.321C40.57 305.451 40.74 316.081 41.07 329.211C41.4 342.341 41.91 350.241 42.58 352.891C42.8 353.671 42.91 354.611 42.91 355.701C42.91 357.261 42.46 358.241 41.57 358.631C40.67 359.021 39 359.141 36.54 358.981C32.96 358.981 28.78 359.141 23.97 359.451C19.16 359.761 14.64 360.081 10.4 360.391C7.05 360.701 4.87 360.311 3.86 359.221C2.86 358.131 2.46 355.701 2.69 351.951C2.69 346.321 2.36 336.401 1.69 322.171C0.79 307.321 0.23 294.421 0.01 283.481C0.01 272.381 0.34 261.131 1.01 249.711C1.46 235.331 1.68 225.481 1.68 220.161C1.68 212.971 1.35 207.731 0.67 204.451C0.22 201.641 0 199.841 0 199.061C0 196.251 0.67 194.331 2.01 193.311C3.35 192.301 5.14 191.791 7.37 191.791C8.48 191.791 10.72 191.831 14.07 191.911C17.42 191.991 22.22 191.481 28.48 190.391C30.94 190.081 33.39 189.921 35.85 189.921C37.19 189.921 39.09 190.001 41.55 190.151C44.01 190.311 47.25 190.381 51.27 190.381C56.41 190.381 60.71 191.791 64.17 194.601C67.63 197.411 71.38 201.401 75.4 206.561L78.75 210.781C81.43 214.221 84.67 217.901 88.47 221.801L93.5 227.191V214.291C93.5 204.601 93.61 198.581 93.83 196.231L93.86 196.241Z" fill="#E63916"/>
<path d="M296.59 349.021C296.59 350.271 295.18 350.901 292.37 350.901H275.49C274.86 350.901 274.24 350.351 273.61 349.261C272.98 348.171 272.44 347.071 271.97 345.981C271.5 344.891 271.11 343.951 270.8 343.171C270.02 341.611 268.57 338.011 266.46 332.381C264.35 326.751 262.75 322.301 261.65 319.011C261.18 317.451 260.24 315.141 258.84 312.091C257.43 309.041 256.41 306.891 255.79 305.641C255.16 303.761 254.58 302.511 254.03 301.891C253.48 301.271 252.66 300.951 251.57 300.951C250.48 300.951 249.11 301.031 247.47 301.181C245.83 301.341 244.07 301.501 242.19 301.651C240.94 301.971 237.03 302.121 230.46 302.121C225.92 302.121 221.47 302.281 217.09 302.591C215.68 302.751 213.18 302.821 209.59 302.821L197.16 302.591C196.38 302.591 195.79 302.901 195.4 303.531C195.01 304.161 194.73 304.901 194.58 305.761C194.42 306.621 194.26 307.281 194.11 307.751L192.7 313.611C192.23 315.801 191.64 318.341 190.94 321.231C190.24 324.121 189.65 326.821 189.18 329.321L186.6 339.401L184.72 346.201C184.25 348.081 183.82 349.291 183.43 349.831C183.04 350.381 182.45 350.651 181.67 350.651H167.84C167.06 350.651 166.67 350.341 166.67 349.711C166.67 349.401 166.98 348.301 167.61 346.431C168.86 343.461 169.95 340.491 170.89 337.521C176.67 318.141 180.11 305.481 181.21 299.531C182.62 291.711 185.51 281.631 189.89 269.281C191.3 263.971 192.62 259.121 193.88 254.741C194.35 252.551 195.05 249.901 195.99 246.771C198.96 235.831 201.93 225.591 204.9 216.051L210.76 197.291C212.01 192.451 213.57 187.441 215.45 182.281C216.39 179.941 217.48 179.391 218.73 180.641C219.67 181.271 220.37 182.361 220.84 183.921C221.31 185.481 221.62 186.581 221.78 187.201C222.25 189.081 226.39 198.461 234.21 215.341C237.34 221.751 240.7 230.111 244.29 240.431C245.85 244.971 250.15 254.731 257.19 269.741C260.78 277.091 263.13 282.171 264.22 284.981C266.72 290.451 273.44 303.741 284.39 324.841L287.2 330.701C290.79 338.671 293.53 343.751 295.41 345.941C296.19 347.501 296.58 348.521 296.58 348.991L296.59 349.021ZM236.79 268.351C237.57 268.351 238.2 268.271 238.67 268.121C239.14 267.971 239.37 267.731 239.37 267.421C239.37 267.111 239.14 266.481 238.67 265.541C237.89 264.131 236.09 260.191 233.28 253.701C230.47 247.211 228.51 242.331 227.42 239.041C225.86 235.291 224.64 232.161 223.79 229.661C222.93 227.161 222.27 225.441 221.8 224.501C221.48 223.721 221.13 222.941 220.75 222.161C220.36 221.381 220.01 220.751 219.69 220.281C219.37 219.811 219.06 219.581 218.75 219.581C218.28 219.581 217.77 220.751 217.23 223.101C216.68 225.441 216.25 227.241 215.94 228.491C213.13 237.561 211.09 244.441 209.84 249.131C209.21 251.481 208.32 254.331 207.14 257.691C205.97 261.051 205.15 263.361 204.68 264.611C204.21 266.171 203.98 267.421 203.98 268.361C203.98 269.301 204.68 269.771 206.09 269.771C209.37 269.771 214.41 269.651 221.21 269.421C228.01 269.191 232.27 268.911 233.99 268.601C235.08 268.451 236.02 268.371 236.8 268.371L236.79 268.351Z" fill="#E63916"/>
<path d="M426.56 349.721C426.56 350.031 426.17 350.581 425.39 351.361C423.98 352.301 420.47 352.771 414.84 352.771C410.77 352.771 408.19 352.501 407.1 351.951C406 351.401 405.18 350.511 404.64 349.251C404.09 348.001 403.66 347.061 403.35 346.441C402.88 345.501 400.96 342.811 397.6 338.351C394.24 333.891 391.7 330.491 389.98 328.151C381.69 317.521 374.5 307.911 368.41 299.311C364.66 294.001 357.7 284.851 347.54 271.871L343.79 267.181L327.61 247.011L326.67 256.391C326.04 261.081 325.89 266.711 326.2 273.271C326.67 277.651 326.98 288.981 327.14 307.271C327.29 325.561 327.37 338.931 327.37 347.371C327.37 349.871 326.43 351.471 324.56 352.181C322.69 352.891 320.49 353.241 317.99 353.241C316.89 353.241 316.19 352.771 315.88 351.831C315.56 350.891 315.37 349.881 315.29 348.781C315.21 347.691 315.17 346.981 315.17 346.671C314.85 344.171 314.7 340.501 314.7 335.651C314.7 332.521 314.78 330.181 314.93 328.621C315.08 320.181 315.32 305.451 315.63 284.421C315.94 263.401 316.1 244.521 316.1 227.791C316.1 209.811 315.87 199.341 315.4 196.371C315.24 195.121 315.16 193.481 315.16 191.441C315.16 189.101 315.51 187.611 316.22 186.981C316.92 186.361 317.98 186.041 319.39 186.041C322.52 186.041 325.56 186.121 328.54 186.271L354.1 186.741C363.48 186.741 373.25 188.381 383.41 191.661C393.57 194.941 398.65 201.041 398.65 209.951C398.65 218.391 395.52 224.961 389.27 229.651C383.02 234.341 376.02 237.551 368.28 239.271C360.54 240.991 353.78 241.851 348 241.851C345.97 241.851 344.87 241.771 344.72 241.621C345.66 242.561 351.83 250.851 363.25 266.481C397.64 312.601 416.63 337.461 420.23 341.051C424.45 345.271 426.56 348.171 426.56 349.731V349.721ZM338.63 232.011C347.7 231.701 354.73 231.071 359.73 230.131C366.92 228.881 372.35 227.161 376.03 224.971C379.7 222.781 381.54 219.341 381.54 214.651C381.54 211.521 379.9 208.831 376.62 206.561C373.34 204.301 369.39 202.581 364.78 201.401C360.17 200.231 356.14 199.641 352.7 199.641C348.79 199.491 343.32 199.411 336.29 199.411H328.32L326.91 232.241C332.07 232.241 335.97 232.161 338.63 232.011Z" fill="#E63916"/>
<path d="M473.83 185.461C476.36 185.381 478.53 185.341 480.35 185.341C484.79 185.341 488.03 185.421 490.05 185.571C492.48 185.731 494.19 186.121 495.21 186.741C496.22 187.371 496.73 188.231 496.73 189.321C496.73 190.101 496.63 190.961 496.43 191.901C496.23 192.841 496.02 193.701 495.82 194.481C493.59 207.771 492.38 221.451 492.18 235.521C491.98 239.591 491.88 245.841 491.88 254.281L492.18 282.651C492.38 284.991 492.48 287.421 492.48 289.921L492.78 299.301C493.18 307.431 493.39 313.451 493.39 317.361C493.39 320.331 493.29 322.131 493.09 322.751C492.89 323.381 492.79 325.181 492.79 328.141L493.09 341.041C493.29 342.921 493.39 345.261 493.39 348.071C493.59 350.101 492.83 351.391 491.12 351.941C489.4 352.491 487.13 352.681 484.3 352.531H456.71C453.68 352.681 451.75 352.181 450.95 351.011C450.14 349.841 449.63 347.921 449.43 345.261C449.02 344.171 449.23 341.271 450.04 336.581C450.85 332.201 451.25 328.451 451.25 325.321C451.25 324.231 451.96 313.681 453.37 293.661C454.58 278.971 455.19 270.911 455.19 269.511L455.8 246.531L456.41 225.191L457.02 212.531L457.63 204.091V194.241C457.63 188.141 459.65 185.101 463.69 185.101C464.7 185.101 465.51 185.181 466.12 185.331C468.74 185.491 471.32 185.531 473.85 185.451L473.83 185.461Z" fill="#E63916"/>
<path d="M624.13 192.321C636.29 195.411 646.38 199.721 654.42 205.251C662.46 210.781 668.06 215.671 671.23 219.921C676.54 227.041 681.01 236.571 684.65 248.511C688.29 260.451 687.56 274.611 682.49 290.991C677.42 307.371 664.38 323.391 643.38 339.041C614.57 360.521 585.82 364.711 557.15 351.601C544.32 345.621 532.98 336.751 523.12 324.971C515.59 314.871 511.63 302.851 511.24 288.931C510.85 275.011 513.86 261.391 520.25 248.041C526.64 234.701 535.39 223.891 546.5 215.611C556.56 208.111 564.2 202.681 569.41 199.341C574.61 196.001 579.85 193.701 585.13 192.451C598.97 189.281 611.97 189.241 624.12 192.331L624.13 192.321ZM664.66 284.451C666.11 267.561 661.1 251.421 649.63 236.031C642.61 226.621 634 219.501 623.8 214.691C613.59 209.881 602.86 207.971 591.58 208.961C580.3 209.951 569.63 214.201 559.56 221.701C558.69 222.351 556.39 224.061 552.66 226.841C548.92 229.621 545.97 232.461 543.8 235.331C541.62 238.211 540 241.291 538.95 244.581C536.05 252.641 533.82 259.711 532.27 265.771C530.72 271.841 530.3 279.431 531.02 288.541C531.74 297.651 535.14 306.291 541.21 314.441C548.4 324.091 556.88 331.751 566.64 337.421C576.4 343.101 587.14 345.631 598.85 345.031C610.56 344.441 622.57 339.541 634.89 330.361C653.28 316.651 663.21 301.341 664.66 284.451Z" fill="#E63916"/>
</svg>
