<svg width="168" height="45" viewBox="0 0 168 45" fill="none" xmlns="http://www.w3.org/2000/svg">
    <path d="M65.5935 38.9949L67.1438 37.5698C67.9816 38.5857 69.0649 39.1008 70.0423 39.1008C71.3037 39.1008 72.1078 38.3883 72.1078 37.4446C72.1078 36.3613 71.0774 35.9665 70.0808 35.6824C67.8371 35.0421 66.0413 34.2573 66.0413 32.0185C66.0413 29.9 67.8371 28.3882 70.206 28.3882C71.6841 28.3882 73.037 28.9226 74.0481 30.1504L72.4641 31.6092C71.7322 30.7185 70.9715 30.3478 70.153 30.3478C68.9782 30.3478 68.2127 31.0603 68.2127 31.9318C68.2127 32.9477 69.1564 33.2847 70.1 33.5688C72.3437 34.1754 74.2647 34.8687 74.2647 37.3387C74.2647 39.4571 72.6085 41.0412 69.9075 41.0412C68.2897 41.0412 66.6672 40.4538 65.6031 38.9949H65.5935Z" fill="black"/>
    <path d="M74.9004 36.1684C74.9004 33.4096 76.5133 31.3345 79.0651 31.3345C80.3602 31.3345 81.3424 31.8737 82.0117 33.0389L82.1417 33.0196C82.1032 32.4996 82.1032 32.0759 82.1032 31.5367H84.1783V40.7761H82.1032C82.1032 40.2224 82.1032 39.8324 82.1417 39.2739L82.0117 39.2546C81.328 40.439 80.2543 40.9975 78.9736 40.9975C76.4748 40.9975 74.9004 38.8694 74.9004 36.1636V36.1684ZM82.1417 36.1492C82.1417 34.4255 81.121 33.2026 79.5321 33.2026C77.9577 33.2026 76.9948 34.4977 76.9948 36.1636C76.9948 37.8487 77.9577 39.1102 79.5321 39.1102C81.145 39.1102 82.1417 37.8873 82.1417 36.1492Z" fill="black"/>
    <path d="M85.1555 31.5418H87.2306C87.2306 32.081 87.2306 32.4662 87.1921 32.9862L87.3221 33.0055C87.9336 31.8933 88.9495 31.3203 90.1724 31.3203C92.3583 31.3203 93.4127 32.8225 93.4127 34.9891V40.786H91.3039V35.5283C91.3039 34.1225 90.6731 33.2317 89.3395 33.2317C87.9865 33.2317 87.2643 34.2669 87.2643 35.5813V40.786H85.1555V31.5418Z" fill="black"/>
    <path d="M94.1399 36.1494C94.1399 33.3906 95.7335 31.2963 98.3046 31.2963C99.566 31.2963 100.601 31.8355 101.251 33.0006L101.381 32.9621C101.309 32.2014 101.309 31.6862 101.309 30.8677V27.353H103.418V40.7812H101.343C101.343 40.2419 101.343 39.8182 101.381 39.2982L101.251 39.279C100.587 40.4249 99.5275 40.9834 98.2131 40.9834C95.7336 40.9834 94.1399 38.8553 94.1399 36.1494ZM101.381 36.1494C101.381 34.4065 100.36 33.2029 98.7716 33.2029C97.1972 33.2221 96.2343 34.4788 96.2343 36.1639C96.2343 37.8298 97.1972 39.1105 98.7716 39.1105C100.385 39.1105 101.381 37.8683 101.381 36.1494Z" fill="black"/>
    <path d="M104.188 29.0962C104.188 28.3355 104.742 27.8203 105.522 27.8203C106.302 27.8203 106.855 28.3403 106.855 29.0962C106.855 29.8521 106.302 30.3576 105.522 30.3576C104.742 30.3576 104.188 29.8377 104.188 29.0962ZM104.467 31.5421H106.576V40.7814H104.467V31.5421Z" fill="black"/>
    <path d="M107.544 36.1686C107.544 33.3183 109.397 31.2432 112.137 31.2432C114.896 31.2432 116.489 33.0968 116.489 35.9664C116.489 36.2456 116.47 36.4864 116.451 36.7608H109.6C109.802 38.1667 110.765 39.2066 112.175 39.2066C113.249 39.2066 114.063 38.653 114.525 37.6515L116.302 38.5037C115.488 40.1888 114.005 41.0603 112.137 41.0603C109.397 41.0603 107.544 39.0044 107.544 36.1734V36.1686ZM114.467 35.1527C114.246 33.8912 113.466 33.0776 112.132 33.0776C110.856 33.0776 109.985 33.9298 109.667 35.1527H114.462H114.467Z" fill="black"/>
    <path d="M117.212 42.5048L119.046 41.6141C119.528 42.5578 120.361 43.097 121.526 43.097C123.139 43.097 124.212 42.0619 124.212 40.4875C124.212 39.9145 124.212 39.616 124.232 39.0623L124.102 39.0431C123.452 40.2275 122.359 40.8582 120.991 40.8582C118.512 40.8582 116.99 38.7638 116.99 36.082C116.99 33.4003 118.565 31.3203 121.155 31.3203C122.45 31.3203 123.432 31.8596 124.102 33.044L124.251 33.0055C124.212 32.5047 124.193 32.081 124.193 31.5418H126.287V40.3189C126.287 43.2463 124.342 44.9314 121.526 44.9314C119.417 44.9314 117.987 44.0407 117.212 42.5048ZM124.232 36.0965C124.232 34.4113 123.23 33.2077 121.622 33.2077C120.048 33.2462 119.085 34.4691 119.085 36.1157C119.085 37.7431 120.067 38.9516 121.622 38.9516C123.235 38.9516 124.232 37.8057 124.232 36.1013V36.0965Z" fill="black"/>
    <path d="M126.802 36.1493C126.802 33.3183 128.709 31.2432 131.526 31.2432C134.323 31.2432 136.23 33.299 136.23 36.1301C136.23 38.9611 134.323 41.0555 131.526 41.0555C128.709 41.0555 126.802 38.9804 126.802 36.1493ZM134.135 36.1349C134.135 34.4497 133.134 33.1161 131.526 33.1161C129.898 33.1161 128.897 34.4497 128.897 36.1541C128.897 37.8393 129.898 39.1922 131.526 39.1922C133.139 39.1922 134.135 37.8393 134.135 36.1349Z" fill="black"/>
    <path d="M137 30.3382C137 31.0075 136.461 31.5515 135.796 31.5515C135.132 31.5515 134.583 31.0075 134.583 30.3382C134.583 29.669 135.122 29.1201 135.811 29.1201C136.499 29.1201 137 29.6738 137 30.3382ZM134.829 30.3382C134.829 30.8775 135.262 31.3204 135.791 31.3204C136.321 31.3204 136.754 30.8823 136.754 30.3382C136.754 29.7942 136.326 29.3512 135.806 29.3512C135.262 29.3512 134.833 29.7845 134.833 30.3382H134.829ZM135.849 29.6497C135.994 29.6497 136.085 29.669 136.162 29.7123C136.278 29.7797 136.34 29.8905 136.34 30.0253C136.34 30.1745 136.263 30.2853 136.119 30.3479C136.273 30.4153 136.316 30.5019 136.321 30.786C136.326 30.8871 136.34 30.9545 136.355 30.993H136.051C136.037 30.9593 136.027 30.9208 136.018 30.8197C136.003 30.6175 135.994 30.5597 135.95 30.5116C135.912 30.4682 135.835 30.4393 135.748 30.4393H135.594V30.9882H135.276V29.6449H135.844L135.849 29.6497ZM135.599 30.2612H135.782C135.955 30.2612 136.032 30.1938 136.032 30.0494C136.032 29.9049 135.96 29.8423 135.801 29.8423H135.604V30.2564L135.599 30.2612Z" fill="black"/>
    <path d="M53.2631 26.0096V26H36.7198C33.5614 26 31 28.5614 31 31.7198V31.8065C31 35.0131 33.5999 37.613 36.8065 37.613H31V43.4195H40.2923C43.4989 43.4195 46.0988 40.8196 46.0988 37.613V43.4195H52.8201C57.63 43.4195 61.5299 39.5196 61.5299 34.7098C61.5299 29.8999 57.8659 26.2407 53.2631 26.0096ZM49.941 31.8306C47.8177 31.8306 46.0988 33.5494 46.0988 35.6727V35.7257C46.0988 33.559 44.3463 31.8065 42.1797 31.8065H42.2664C44.3848 31.8065 46.0988 30.0925 46.0988 27.974V27.9644C46.0988 30.0877 47.8177 31.8065 49.941 31.8065V31.8306Z" fill="black"/>
    <path d="M4.83559 13.7691L0 0.23087H2.96226L6.38594 10.2507L9.69886 0.23087H12.5965L7.75172 13.7691H4.83559ZM13.99 13.7691V0.23087H24.0211V2.52111H16.7216V5.52244H23.5135V7.80343H16.7216V11.4881H24.2794V13.7691H13.99ZM26.605 13.7691V0.23087H32.3542C33.7999 0.23087 34.8489 0.354001 35.501 0.600263C36.1593 0.840369 36.6853 1.27133 37.0791 1.89314C37.4728 2.51495 37.6697 3.22604 37.6697 4.02639C37.6697 5.04222 37.3712 5.88259 36.7745 6.5475C36.1777 7.20625 35.2857 7.62182 34.0983 7.79419C34.6889 8.13896 35.175 8.5176 35.5564 8.93009C35.944 9.34256 36.4637 10.0752 37.1159 11.128L38.7677 13.7691H35.501L33.5261 10.8232C32.8248 9.77045 32.3449 9.10863 32.0865 8.83773C31.8282 8.56069 31.5545 8.37291 31.2653 8.27441C30.9761 8.16974 30.5178 8.11742 29.8902 8.11742H29.3366V13.7691H26.605ZM29.3366 5.95647H31.3576C32.6679 5.95647 33.4861 5.90106 33.8123 5.79024C34.1383 5.67943 34.3936 5.48857 34.5782 5.21768C34.7628 4.94679 34.8551 4.60818 34.8551 4.20186C34.8551 3.74626 34.7319 3.37995 34.4859 3.1029C34.2459 2.8197 33.9044 2.64116 33.4616 2.56729C33.2401 2.53651 32.5757 2.52111 31.4683 2.52111H29.3366V5.95647ZM45.5136 13.7691V0.23087H49.897C51.5581 0.23087 52.6408 0.298593 53.1453 0.434038C53.9205 0.637204 54.5695 1.08048 55.0926 1.76385C55.6154 2.44108 55.8769 3.31839 55.8769 4.39578C55.8769 5.22692 55.7262 5.92569 55.4247 6.49209C55.1233 7.0585 54.7388 7.50484 54.2712 7.83114C53.8098 8.15129 53.3392 8.36368 52.8593 8.46835C52.2071 8.59763 51.2628 8.66227 50.0263 8.66227H48.2452V13.7691H45.5136ZM48.2452 2.52111V6.3628H49.7401C50.8167 6.3628 51.5366 6.292 51.8995 6.15039C52.2625 6.0088 52.5456 5.78717 52.7486 5.48549C52.9577 5.18381 53.0623 4.8329 53.0623 4.43272C53.0623 3.94019 52.9177 3.53387 52.6286 3.21372C52.3394 2.89358 51.9734 2.69349 51.5305 2.61345C51.2043 2.55189 50.5491 2.52111 49.5648 2.52111H48.2452ZM68.9164 13.7691H65.9449L64.7637 10.6939H59.356L58.2393 13.7691H55.3417L60.611 0.23087H63.4995L68.9164 13.7691ZM63.8871 8.41293L62.023 3.38918L60.1957 8.41293H63.8871ZM70.3838 13.7691V0.23087H76.1328C77.5786 0.23087 78.6275 0.354001 79.2797 0.600263C79.938 0.840369 80.4639 1.27133 80.8577 1.89314C81.2514 2.51495 81.4483 3.22604 81.4483 4.02639C81.4483 5.04222 81.15 5.88259 80.5532 6.5475C79.9565 7.20625 79.0644 7.62182 77.8771 7.79419C78.4677 8.13896 78.9537 8.5176 79.335 8.93009C79.7226 9.34256 80.2425 10.0752 80.8947 11.128L82.5465 13.7691H79.2797L77.3049 10.8232C76.6036 9.77045 76.1237 9.10863 75.8652 8.83773C75.6069 8.56069 75.333 8.37291 75.0439 8.27441C74.7547 8.16974 74.2964 8.11742 73.669 8.11742H73.1152V13.7691H70.3838ZM73.1152 5.95647H75.1362C76.4467 5.95647 77.2649 5.90106 77.5909 5.79024C77.9171 5.67943 78.1724 5.48857 78.357 5.21768C78.5414 4.94679 78.6337 4.60818 78.6337 4.20186C78.6337 3.74626 78.5107 3.37995 78.2647 3.1029C78.0246 2.8197 77.6832 2.64116 77.2403 2.56729C77.0187 2.53651 76.3544 2.52111 75.2469 2.52111H73.1152V5.95647ZM96.232 13.7691H93.2604L92.0792 10.6939H86.6714L85.555 13.7691H82.6572L87.9265 0.23087H90.815L96.232 13.7691ZM91.2026 8.41293L89.3385 3.38918L87.5114 8.41293H91.2026ZM110.905 8.79155L113.553 9.63193C113.147 11.1095 112.471 12.2084 111.523 12.9288C110.582 13.6429 109.385 14 107.933 14C106.137 14 104.66 13.3874 103.504 12.1623C102.347 10.931 101.769 9.25022 101.769 7.12006C101.769 4.86676 102.35 3.1183 103.513 1.87467C104.676 0.62489 106.205 0 108.099 0C109.754 0 111.099 0.489446 112.132 1.46834C112.747 2.04706 113.209 2.87819 113.516 3.96174L110.813 4.60818C110.653 3.90634 110.317 3.35224 109.807 2.94591C109.302 2.53958 108.687 2.33641 107.961 2.33641C106.958 2.33641 106.143 2.69657 105.516 3.41689C104.894 4.1372 104.584 5.30386 104.584 6.91689C104.584 8.62841 104.891 9.84741 105.506 10.5739C106.122 11.3004 106.921 11.6636 107.906 11.6636C108.632 11.6636 109.256 11.4327 109.779 10.971C110.302 10.5092 110.677 9.78276 110.905 8.79155ZM115.916 13.7691V0.23087H121.665C123.111 0.23087 124.16 0.354001 124.812 0.600263C125.47 0.840369 125.996 1.27133 126.39 1.89314C126.784 2.51495 126.98 3.22604 126.98 4.02639C126.98 5.04222 126.682 5.88259 126.085 6.5475C125.488 7.20625 124.596 7.62182 123.409 7.79419C124 8.13896 124.486 8.5176 124.867 8.93009C125.255 9.34256 125.775 10.0752 126.427 11.128L128.079 13.7691H124.812L122.837 10.8232C122.136 9.77045 121.656 9.10863 121.397 8.83773C121.139 8.56069 120.865 8.37291 120.576 8.27441C120.287 8.16974 119.829 8.11742 119.201 8.11742H118.647V13.7691H115.916ZM118.647 5.95647H120.668C121.979 5.95647 122.797 5.90106 123.123 5.79024C123.449 5.67943 123.704 5.48857 123.889 5.21768C124.074 4.94679 124.166 4.60818 124.166 4.20186C124.166 3.74626 124.043 3.37995 123.797 3.1029C123.557 2.8197 123.215 2.64116 122.772 2.56729C122.551 2.53651 121.886 2.52111 120.779 2.52111H118.647V5.95647ZM129.564 13.7691V0.23087H139.595V2.52111H132.296V5.52244H139.088V7.80343H132.296V11.4881H139.854V13.7691H129.564ZM154.37 13.7691H151.398L150.217 10.6939H144.809L143.693 13.7691H140.795L146.064 0.23087H148.953L154.37 13.7691ZM149.34 8.41293L147.476 3.38918L145.649 8.41293H149.34ZM155.837 13.7691V0.23087H161.587C163.033 0.23087 164.082 0.354001 164.734 0.600263C165.392 0.840369 165.918 1.27133 166.312 1.89314C166.705 2.51495 166.902 3.22604 166.902 4.02639C166.902 5.04222 166.603 5.88259 166.006 6.5475C165.409 7.20625 164.518 7.62182 163.33 7.79419C163.921 8.13896 164.408 8.5176 164.789 8.93009C165.176 9.34256 165.696 10.0752 166.348 11.128L168 13.7691H164.734L162.759 10.8232C162.056 9.77045 161.577 9.10863 161.319 8.83773C161.061 8.56069 160.787 8.37291 160.497 8.27441C160.209 8.16974 159.75 8.11742 159.122 8.11742H158.569V13.7691H155.837ZM158.569 5.95647H160.59C161.9 5.95647 162.718 5.90106 163.044 5.79024C163.37 5.67943 163.626 5.48857 163.811 5.21768C163.995 4.94679 164.088 4.60818 164.088 4.20186C164.088 3.74626 163.963 3.37995 163.718 3.1029C163.478 2.8197 163.137 2.64116 162.694 2.56729C162.472 2.53651 161.807 2.52111 160.7 2.52111H158.569V5.95647Z" fill="black"/>
</svg>
