<svg width="529" height="145" viewBox="0 0 529 145" fill="none" xmlns="http://www.w3.org/2000/svg">
    <path d="M15.75 18.7458C15.75 20.6858 15.43 25.6158 14.81 33.5258C14.18 41.1558 13.87 45.8058 13.87 47.4658C13.87 51.4858 14.02 56.5658 14.34 62.7058C14.65 68.8458 14.96 72.5058 15.28 73.6858C15.43 74.1058 15.51 74.5858 15.51 75.1458C15.51 75.6358 15.31 75.9758 14.92 76.1858C14.53 76.3958 13.94 76.6058 13.16 76.8058C12.22 77.0858 9.79 77.2258 5.88 77.2258H2.94C1.61 77.2258 0.79 77.1558 0.47 77.0158C0.15 76.8758 0 76.5958 0 76.1858L0.23 72.8558L0.7 59.2258L1.17 37.3758C1.17 35.2958 1.48 30.5758 2.11 23.2258C2.26 21.4958 2.5 18.6658 2.81 14.7458C3.12 10.8258 3.12 8.51578 2.81 7.82578L2.58 5.63578C2.58 3.83578 3.83 2.92578 6.34 2.92578L15.03 3.02578C16.59 3.02578 17.38 3.51578 17.38 4.48578C17.38 4.83578 17.3 5.23578 17.15 5.68578C16.99 6.13578 16.92 6.56578 16.92 6.98578C16.45 8.51578 16.06 12.4358 15.74 18.7458H15.75Z" fill="black"/>
    <path d="M32.4301 11.5658C32.9501 13.4358 33.6901 15.8658 34.6701 18.8458C35.3601 20.9958 37.1501 25.8158 40.0301 33.3058C42.9101 40.7958 44.8301 45.6158 45.8001 47.7658C46.7001 50.0558 47.9201 53.5558 49.4401 58.2758L51.7301 65.3558L53.0801 62.9658L55.9901 57.2458C56.4101 56.2758 57.6901 53.7458 59.8401 49.6458C64.3501 41.2558 67.3001 35.4258 68.6801 32.1658C69.7201 29.7358 71.2101 26.4758 73.1501 22.3858C73.6301 21.2758 74.2401 19.9358 74.9701 18.3758C75.7001 16.8158 76.2001 15.6858 76.4801 14.9958C76.6201 14.5758 77.0501 13.2758 77.7801 11.0958C78.5101 8.90584 79.2401 7.05584 79.9701 5.52584C80.7001 4.00584 81.3001 3.23584 81.7901 3.23584C82.3401 3.23584 82.6201 4.03584 82.6201 5.62584C82.6201 6.52584 82.5801 7.41584 82.5201 8.27584C82.4501 9.14584 82.3801 9.92584 82.3101 10.6158L82.0001 14.3658C81.7901 17.9758 81.6901 24.6358 81.6901 34.3458C81.6901 37.7458 81.6401 42.0658 81.5301 47.2958C81.4301 52.5358 81.3001 56.0558 81.1701 57.8558L81.0701 74.8158V75.1258C81.0701 75.8158 80.6901 76.1658 79.9301 76.1658C78.0601 76.1658 76.8401 76.1358 76.2901 76.0658C75.9401 75.9958 75.7701 75.7158 75.7701 75.2358L75.8701 73.4658C75.8701 70.4858 75.9401 65.6058 76.0801 58.8458C76.2201 52.0858 76.3901 47.5958 76.6001 45.3658C76.6701 43.7058 76.7001 40.1958 76.7001 34.8558C76.7001 31.9458 76.6601 29.7258 76.6001 28.1958C75.1401 30.7658 74.2701 32.3558 74.0001 32.9858C73.4401 33.9558 72.6501 35.4858 71.6101 37.5658C71.4001 37.9858 71.1601 38.4658 70.8801 39.0258C70.6001 39.5858 70.2901 40.1358 69.9401 40.6858C69.0401 42.4858 67.0301 46.5458 63.9101 52.8558L60.5801 59.7258C59.8901 60.9058 58.7401 63.0558 57.1501 66.1758C55.5501 69.2958 54.4801 71.4158 53.9201 72.5258L52.2601 75.8558C51.8401 76.7558 51.3401 77.5558 50.7501 78.2458C50.1601 78.9358 49.6601 79.2858 49.2401 79.2858C48.8201 79.2858 48.5301 79.1858 48.3601 78.9758C48.1901 78.7658 48.0301 78.4358 47.8901 77.9858C47.7501 77.5358 47.6501 77.2058 47.5801 76.9958C47.4401 76.5758 46.6801 74.3758 45.2901 70.3858C43.9001 66.3958 42.8301 63.5358 42.0601 61.8058C41.0901 59.4458 39.8401 56.3658 38.3101 52.5458C36.7801 48.7358 35.7801 45.9858 35.2901 44.3258C34.6701 42.5958 34.1101 40.9258 33.6301 39.3358L32.0701 34.4458C30.7501 30.5658 29.9901 28.2358 29.7801 27.4758L29.5701 31.3258C29.5001 32.7858 29.4701 35.0058 29.4701 37.9858C29.4701 47.8358 29.3301 54.7058 29.0501 58.5858C28.9801 59.5558 28.9501 61.5358 28.9501 64.5158L29.0501 75.0258V75.3358C29.0501 76.5858 28.5601 77.1358 27.5901 76.9958C27.2401 76.8558 26.6901 76.7858 25.9301 76.7858H24.2701C23.9201 76.7858 23.7501 76.5458 23.7501 76.0558L23.8501 74.1858L23.6401 64.1958L23.3301 42.4458C23.3301 38.9058 23.4001 34.6558 23.5401 29.6958C23.6801 24.7358 23.8201 21.3858 23.9601 19.6558C24.1701 17.3658 24.3201 14.8558 24.4301 12.1158C24.5301 9.37584 24.5901 7.13584 24.5901 5.40584V4.98584C24.5901 4.08584 24.6901 3.58584 24.9001 3.47584C25.1101 3.37584 25.4501 3.35584 25.9401 3.42584H26.7701C27.8801 3.42584 28.7501 3.39584 29.3701 3.32584C30.5501 3.32584 31.2401 4.33584 31.4501 6.34584C31.5901 7.94584 31.9201 9.67584 32.4401 11.5458L32.4301 11.5658Z" fill="black"/>
    <path d="M144.34 75.7658C144.34 76.3258 143.72 76.5958 142.47 76.5958H134.98C134.7 76.5958 134.42 76.3558 134.15 75.8658C133.87 75.3858 133.63 74.8958 133.42 74.4058C133.21 73.9258 133.04 73.5058 132.9 73.1558C132.55 72.4658 131.91 70.8658 130.98 68.3658C130.04 65.8658 129.33 63.8958 128.85 62.4358C128.64 61.7458 128.23 60.7158 127.6 59.3658C126.98 58.0158 126.52 57.0558 126.25 56.5058C125.97 55.6758 125.71 55.1158 125.47 54.8458C125.23 54.5658 124.86 54.4258 124.38 54.4258C123.9 54.4258 123.29 54.4658 122.56 54.5258C121.83 54.5958 121.05 54.6658 120.22 54.7358C119.66 54.8758 117.93 54.9458 115.02 54.9458C113.01 54.9458 111.03 55.0158 109.09 55.1558C108.47 55.2258 107.36 55.2558 105.76 55.2558L100.25 55.1558C99.9 55.1558 99.64 55.2958 99.47 55.5758C99.3 55.8558 99.17 56.1858 99.11 56.5658C99.04 56.9458 98.97 57.2458 98.9 57.4458L98.28 60.0458C98.07 61.0158 97.81 62.1458 97.5 63.4258C97.19 64.7058 96.93 65.9058 96.72 67.0158L95.58 71.4858L94.75 74.5058C94.54 75.3358 94.35 75.8758 94.18 76.1158C94.01 76.3558 93.75 76.4758 93.4 76.4758H87.26C86.91 76.4758 86.74 76.3358 86.74 76.0558C86.74 75.9158 86.88 75.4358 87.16 74.5958C87.71 73.2758 88.2 71.9558 88.62 70.6458C91.19 62.0458 92.71 56.4258 93.2 53.7858C93.82 50.3158 95.11 45.8458 97.05 40.3658C97.67 38.0058 98.26 35.8558 98.82 33.9158C99.03 32.9458 99.34 31.7658 99.76 30.3758C101.08 25.5258 102.4 20.9758 103.71 16.7458L106.31 8.42579C106.86 6.27579 107.56 4.05579 108.39 1.76579C108.81 0.725787 109.29 0.485786 109.85 1.03579C110.27 1.31579 110.58 1.79579 110.79 2.49579C111 3.18579 111.14 3.67579 111.21 3.95579C111.42 4.78579 113.26 8.94579 116.72 16.4458C118.11 19.2958 119.6 23.0058 121.19 27.5758C121.88 29.5858 123.79 33.9258 126.91 40.5858C128.5 43.8458 129.55 46.0958 130.03 47.3458C131.14 49.7758 134.12 55.6658 138.98 65.0358L140.23 67.6358C141.82 71.1758 143.04 73.4258 143.87 74.3958C144.22 75.0858 144.39 75.5358 144.39 75.7458L144.34 75.7658ZM117.81 39.9658C118.16 39.9658 118.43 39.9358 118.64 39.8658C118.85 39.7958 118.95 39.6958 118.95 39.5558C118.95 39.4158 118.85 39.1358 118.64 38.7258C118.29 38.1058 117.5 36.3458 116.25 33.4758C115 30.5958 114.13 28.4258 113.65 26.9758C112.96 25.3158 112.42 23.9258 112.04 22.8158C111.66 21.7058 111.36 20.9458 111.16 20.5258C111.02 20.1758 110.86 19.8358 110.69 19.4858C110.52 19.1358 110.36 18.8658 110.22 18.6558C110.08 18.4458 109.94 18.3458 109.8 18.3458C109.59 18.3458 109.37 18.8658 109.12 19.9058C108.88 20.9458 108.69 21.7458 108.55 22.2958C107.3 26.3158 106.4 29.3758 105.84 31.4558C105.56 32.4958 105.16 33.7658 104.64 35.2558C104.12 36.7458 103.76 37.7658 103.55 38.3258C103.34 39.0158 103.24 39.5758 103.24 39.9858C103.24 40.3958 103.55 40.6058 104.18 40.6058C105.64 40.6058 107.87 40.5558 110.89 40.4458C113.91 40.3458 115.8 40.2258 116.56 40.0858C117.04 40.0158 117.46 39.9858 117.81 39.9858V39.9658Z" fill="black"/>
    <path d="M180.4 5.21619C182.86 6.81619 184.58 8.28619 185.55 9.63619C186.52 10.9862 187.15 11.8062 187.42 12.0862C187.97 12.7062 188.25 13.3662 188.25 14.0662C188.25 14.8962 187.94 15.6262 187.31 16.2562C186.68 16.8862 185.91 17.5762 184.97 18.3362C184.03 19.0962 183.18 19.7562 182.42 20.3162C182.07 20.5262 181.76 20.6262 181.48 20.6262C180.86 20.6262 180.23 20.3162 179.61 19.6862C179.47 19.5462 178.47 18.3862 176.59 16.1962C174.72 14.0062 171.91 12.9162 168.16 12.9162C165.31 12.9162 162.85 14.4262 160.77 17.4462C158.69 20.4662 157.11 24.1062 156.04 28.3762C154.96 32.6462 154.43 36.6162 154.43 40.2862C154.43 43.9562 154.98 48.1562 156.09 52.4562C157.2 56.7562 158.99 60.4362 161.45 63.4862C163.91 66.5362 167.02 68.0662 170.76 68.0662C175.75 68.0662 179.57 66.1262 182.21 62.2362C183.32 60.4362 184.05 58.4562 184.4 56.3062H181.38L176.7 56.2062L166.19 56.1062C165.01 56.1062 164.42 55.5562 164.42 54.4462V50.3862C164.42 49.6962 164.52 49.2562 164.73 49.0862C164.94 48.9162 165.21 48.8262 165.56 48.8262H170.35L191.68 48.3062C192.3 48.3062 192.77 48.6162 193.08 49.2462C193.39 49.8762 193.51 50.7062 193.44 51.7462C193.44 54.1762 192.99 57.3162 192.09 61.1662C191.19 65.0162 188.97 68.7662 185.43 72.4062C181.89 76.0462 176.62 77.8662 169.61 77.8662C164.41 77.8662 159.95 75.8862 156.24 71.9362C152.53 67.9862 149.75 62.8962 147.92 56.6962C146.08 50.4862 145.16 44.1262 145.16 37.6062C145.16 31.5062 146.29 25.7762 148.54 20.4362C150.79 15.0962 153.81 10.8262 157.59 7.63619C161.37 4.44619 165.38 2.84619 169.61 2.84619C174.33 2.84619 177.92 3.64619 180.38 5.23619L180.4 5.21619Z" fill="black"/>
    <path d="M204.74 3.18584C205.61 3.15584 206.35 3.13584 206.98 3.13584C208.5 3.13584 209.62 3.17584 210.31 3.23584C211.14 3.30584 211.73 3.47584 212.08 3.75584C212.43 4.03584 212.6 4.41584 212.6 4.89584C212.6 5.24584 212.56 5.62584 212.5 6.03584C212.43 6.45584 212.36 6.83584 212.29 7.17584C211.53 13.0758 211.11 19.1458 211.04 25.3858C210.97 27.1858 210.94 29.9658 210.94 33.7058L211.04 46.2958C211.11 47.3358 211.14 48.4158 211.14 49.5258L211.24 53.6858C211.38 57.2958 211.45 59.9658 211.45 61.6958C211.45 63.0158 211.41 63.8158 211.35 64.0858C211.28 64.3658 211.25 65.1658 211.25 66.4758L211.35 72.1958C211.42 73.0258 211.45 74.0658 211.45 75.3158C211.52 76.2158 211.26 76.7858 210.67 77.0358C210.08 77.2758 209.3 77.3658 208.33 77.2958H198.86C197.82 77.3658 197.16 77.1358 196.88 76.6158C196.6 76.0958 196.43 75.2458 196.36 74.0658C196.22 73.5858 196.29 72.2958 196.57 70.2158C196.85 68.2758 196.99 66.6058 196.99 65.2258C196.99 64.7458 197.23 60.0558 197.72 51.1758C198.14 44.6558 198.34 41.0858 198.34 40.4558L198.55 30.2558L198.76 20.7858L198.97 15.1658L199.18 11.4158V7.04584C199.18 4.33584 199.87 2.98584 201.26 2.98584C201.61 2.98584 201.88 3.02584 202.09 3.08584C202.99 3.15584 203.88 3.17584 204.74 3.13584V3.18584Z" fill="black"/>
    <path d="M261.83 3.65601C261.83 2.33601 262.47 1.54601 263.76 1.26601C265.05 0.986014 266.93 0.846014 269.41 0.846014C271.59 0.846014 274.39 0.756014 277.81 0.586014C281.23 0.416014 283.88 0.226014 285.77 0.0160137C287.16 -0.0539863 288.15 0.106014 288.74 0.486014C289.34 0.866014 289.63 1.50601 289.63 2.41601C289.63 2.69601 289.53 3.45601 289.33 4.70601C289.13 5.74601 289.03 12.646 289.03 25.416V48.936C289.03 52.476 289.1 56.376 289.25 60.646C289.4 64.916 289.57 68.746 289.77 72.146C289.97 75.546 290.07 76.486 290.07 74.956C290.07 76.066 289.28 76.616 287.69 76.616C287 76.616 286.4 76.576 285.91 76.516C285.51 76.446 284.72 76.416 283.53 76.416C282.34 76.416 280.46 76.486 277.88 76.626C275.1 76.766 273.17 76.836 272.08 76.836C270.2 76.836 268.78 76.556 267.84 76.006C266.9 75.456 265.93 74.446 264.94 72.986L262.41 69.446C259.44 64.796 256.81 61.156 254.53 58.516C253.24 56.996 249.97 52.796 244.72 45.926L238.18 37.286V43.636C238.18 44.196 238.15 44.886 238.11 45.716C238.06 46.546 238.08 47.486 238.18 48.526C238.18 52.136 238.25 56.846 238.4 62.676C238.55 68.506 238.77 72.006 239.07 73.186C239.17 73.536 239.22 73.946 239.22 74.436C239.22 75.126 239.02 75.566 238.63 75.736C238.23 75.906 237.49 75.966 236.4 75.896C234.81 75.896 232.95 75.966 230.82 76.106C228.69 76.246 226.68 76.386 224.8 76.526C223.31 76.666 222.35 76.496 221.9 76.006C221.45 75.526 221.28 74.446 221.38 72.776C221.38 70.276 221.23 65.876 220.93 59.566C220.53 52.976 220.28 47.256 220.19 42.396C220.19 37.476 220.34 32.476 220.64 27.416C220.84 21.036 220.94 16.666 220.94 14.306C220.94 11.116 220.79 8.79601 220.49 7.33601C220.29 6.08601 220.19 5.29601 220.19 4.94601C220.19 3.69601 220.49 2.84601 221.08 2.39601C221.67 1.94601 222.47 1.71601 223.46 1.71601C223.95 1.71601 224.95 1.73601 226.43 1.76601C227.92 1.80601 230.05 1.57601 232.82 1.08601C233.91 0.946014 235 0.876014 236.09 0.876014C236.68 0.876014 237.53 0.916014 238.62 0.976014C239.71 1.04601 241.15 1.07601 242.93 1.07601C245.21 1.07601 247.12 1.69601 248.65 2.94601C250.19 4.19601 251.85 5.96601 253.63 8.25601L255.12 10.126C256.31 11.656 257.75 13.286 259.43 15.016L261.66 17.406V11.686C261.66 7.38601 261.71 4.71601 261.81 3.67601L261.83 3.65601Z" fill="black"/>
    <path d="M355.42 75.7658C355.42 76.3258 354.8 76.5958 353.55 76.5958H346.06C345.78 76.5958 345.5 76.3558 345.23 75.8658C344.95 75.3858 344.71 74.8958 344.5 74.4058C344.29 73.9258 344.12 73.5058 343.98 73.1558C343.63 72.4658 342.99 70.8658 342.06 68.3658C341.12 65.8658 340.41 63.8958 339.93 62.4358C339.72 61.7458 339.31 60.7158 338.68 59.3658C338.06 58.0158 337.6 57.0558 337.33 56.5058C337.05 55.6758 336.79 55.1158 336.55 54.8458C336.31 54.5658 335.94 54.4258 335.46 54.4258C334.98 54.4258 334.37 54.4658 333.64 54.5258C332.91 54.5958 332.13 54.6658 331.3 54.7358C330.74 54.8758 329.01 54.9458 326.1 54.9458C324.09 54.9458 322.11 55.0158 320.17 55.1558C319.55 55.2258 318.44 55.2558 316.84 55.2558L311.33 55.1558C310.98 55.1558 310.72 55.2958 310.55 55.5758C310.38 55.8558 310.25 56.1858 310.19 56.5658C310.12 56.9458 310.05 57.2458 309.98 57.4458L309.36 60.0458C309.15 61.0158 308.89 62.1458 308.58 63.4258C308.27 64.7058 308.01 65.9058 307.8 67.0158L306.66 71.4858L305.83 74.5058C305.62 75.3358 305.43 75.8758 305.26 76.1158C305.09 76.3558 304.83 76.4758 304.48 76.4758H298.34C297.99 76.4758 297.82 76.3358 297.82 76.0558C297.82 75.9158 297.96 75.4358 298.24 74.5958C298.79 73.2758 299.28 71.9558 299.7 70.6458C302.27 62.0458 303.79 56.4258 304.28 53.7858C304.9 50.3158 306.19 45.8458 308.13 40.3658C308.75 38.0058 309.34 35.8558 309.9 33.9158C310.11 32.9458 310.42 31.7658 310.84 30.3758C312.16 25.5258 313.48 20.9758 314.79 16.7458L317.39 8.42579C317.94 6.27579 318.64 4.05579 319.47 1.76579C319.89 0.725787 320.37 0.485786 320.93 1.03579C321.35 1.31579 321.66 1.79579 321.87 2.49579C322.08 3.18579 322.22 3.67579 322.29 3.95579C322.5 4.78579 324.34 8.94579 327.8 16.4458C329.19 19.2958 330.68 23.0058 332.27 27.5758C332.96 29.5858 334.87 33.9258 337.99 40.5858C339.58 43.8458 340.63 46.0958 341.11 47.3458C342.22 49.7758 345.2 55.6658 350.06 65.0358L351.31 67.6358C352.9 71.1758 354.12 73.4258 354.95 74.3958C355.3 75.0858 355.47 75.5358 355.47 75.7458L355.42 75.7658ZM328.89 39.9658C329.24 39.9658 329.51 39.9358 329.72 39.8658C329.93 39.7958 330.03 39.6958 330.03 39.5558C330.03 39.4158 329.93 39.1358 329.72 38.7258C329.37 38.1058 328.58 36.3458 327.33 33.4758C326.08 30.5958 325.21 28.4258 324.73 26.9758C324.04 25.3158 323.5 23.9258 323.12 22.8158C322.74 21.7058 322.44 20.9458 322.24 20.5258C322.1 20.1758 321.94 19.8358 321.77 19.4858C321.6 19.1358 321.44 18.8658 321.3 18.6558C321.16 18.4458 321.02 18.3458 320.88 18.3458C320.67 18.3458 320.45 18.8658 320.2 19.9058C319.96 20.9458 319.77 21.7458 319.63 22.2958C318.38 26.3158 317.48 29.3758 316.92 31.4558C316.64 32.4958 316.24 33.7658 315.72 35.2558C315.2 36.7458 314.84 37.7658 314.63 38.3258C314.42 39.0158 314.32 39.5758 314.32 39.9858C314.32 40.3958 314.63 40.6058 315.26 40.6058C316.72 40.6058 318.95 40.5558 321.97 40.4458C324.99 40.3458 326.88 40.2258 327.64 40.0858C328.12 40.0158 328.54 39.9858 328.89 39.9858V39.9658Z" fill="black"/>
    <path d="M413.1 76.076C413.1 76.216 412.93 76.456 412.58 76.806C411.96 77.226 410.39 77.426 407.9 77.426C406.1 77.426 404.95 77.306 404.47 77.066C403.98 76.826 403.62 76.426 403.38 75.866C403.14 75.316 402.95 74.896 402.81 74.616C402.6 74.196 401.75 73.006 400.26 71.026C398.77 69.046 397.64 67.536 396.88 66.496C393.2 61.776 390.01 57.516 387.31 53.696C385.65 51.336 382.56 47.276 378.05 41.526L376.39 39.446L369.21 30.496L368.79 34.656C368.51 36.736 368.44 39.236 368.58 42.146C368.79 44.086 368.93 49.116 369 57.236C369.07 65.356 369.1 71.286 369.1 75.026C369.1 76.136 368.68 76.846 367.85 77.156C367.02 77.466 366.05 77.626 364.94 77.626C364.45 77.626 364.14 77.416 364 77.006C363.86 76.586 363.77 76.136 363.74 75.656C363.7 75.176 363.69 74.856 363.69 74.716C363.55 73.606 363.48 71.976 363.48 69.826C363.48 68.436 363.51 67.396 363.58 66.706C363.65 62.956 363.75 56.426 363.89 47.096C364.03 37.766 364.1 29.386 364.1 21.966C364.1 13.986 364 9.34604 363.79 8.02604C363.72 7.47604 363.69 6.74604 363.69 5.83604C363.69 4.79604 363.85 4.13604 364.16 3.85604C364.47 3.57604 364.94 3.43604 365.56 3.43604C366.95 3.43604 368.3 3.47604 369.62 3.53604L380.96 3.74604C385.12 3.74604 389.46 4.47604 393.97 5.93604C398.48 7.39604 400.73 10.096 400.73 14.056C400.73 17.806 399.34 20.716 396.57 22.796C393.79 24.876 390.69 26.296 387.26 27.066C383.83 27.826 380.83 28.206 378.26 28.206C377.36 28.206 376.87 28.176 376.8 28.106C377.22 28.526 379.96 32.196 385.02 39.136C400.28 59.596 408.71 70.626 410.3 72.226C412.17 74.096 413.11 75.386 413.11 76.076H413.1ZM374.08 23.846C378.1 23.706 381.22 23.426 383.44 23.016C386.63 22.466 389.04 21.696 390.67 20.726C392.3 19.756 393.12 18.226 393.12 16.146C393.12 14.756 392.39 13.566 390.93 12.556C389.47 11.556 387.72 10.786 385.68 10.266C383.63 9.74604 381.85 9.48603 380.32 9.48603C378.59 9.41603 376.16 9.38604 373.04 9.38604H369.5L368.88 23.956C371.17 23.956 372.9 23.926 374.08 23.856V23.846Z" fill="black"/>
    <path d="M434.07 3.18584C435.19 3.15584 436.16 3.13584 436.96 3.13584C438.93 3.13584 440.37 3.17584 441.27 3.23584C442.35 3.30584 443.11 3.47584 443.56 3.75584C444.01 4.03584 444.23 4.41584 444.23 4.89584C444.23 5.24584 444.18 5.62584 444.1 6.03584C444.01 6.45584 443.92 6.83584 443.83 7.17584C442.84 13.0758 442.3 19.1458 442.22 25.3858C442.13 27.1858 442.09 29.9658 442.09 33.7058L442.22 46.2958C442.31 47.3358 442.35 48.4158 442.35 49.5258L442.48 53.6858C442.66 57.2958 442.75 59.9658 442.75 61.6958C442.75 63.0158 442.7 63.8158 442.62 64.0858C442.53 64.3658 442.49 65.1658 442.49 66.4758L442.62 72.1958C442.71 73.0258 442.75 74.0658 442.75 75.3158C442.84 76.2158 442.5 76.7858 441.74 77.0358C440.98 77.2758 439.97 77.3658 438.71 77.2958H426.47C425.12 77.3658 424.27 77.1358 423.91 76.6158C423.55 76.0958 423.33 75.2458 423.24 74.0658C423.06 73.5858 423.15 72.2958 423.51 70.2158C423.87 68.2758 424.05 66.6058 424.05 65.2258C424.05 64.7458 424.36 60.0558 424.99 51.1758C425.53 44.6558 425.8 41.0858 425.8 40.4558L426.07 30.2558L426.34 20.7858L426.61 15.1658L426.88 11.4158V7.04584C426.88 4.33584 427.78 2.98584 429.57 2.98584C430.02 2.98584 430.38 3.02584 430.65 3.08584C431.81 3.15584 432.96 3.17584 434.08 3.13584L434.07 3.18584Z" fill="black"/>
    <path d="M500.77 6.23597C506.16 7.60597 510.65 9.51597 514.21 11.976C517.78 14.436 520.26 16.606 521.67 18.486C524.03 21.646 526.01 25.876 527.62 31.176C529.23 36.476 528.91 42.756 526.66 50.026C524.41 57.296 518.62 64.406 509.3 71.346C496.51 80.876 483.76 82.736 471.04 76.916C465.35 74.266 460.31 70.326 455.94 65.096C452.6 60.616 450.84 55.286 450.67 49.106C450.5 42.936 451.83 36.886 454.67 30.966C457.51 25.046 461.39 20.246 466.32 16.576C470.79 13.246 474.18 10.836 476.48 9.35597C478.78 7.87597 481.11 6.85597 483.46 6.29597C489.6 4.88597 495.37 4.87597 500.76 6.23597H500.77ZM518.75 47.116C519.39 39.626 517.17 32.456 512.08 25.626C508.97 21.446 505.14 18.296 500.62 16.156C496.09 14.026 491.33 13.176 486.32 13.616C481.32 14.056 476.58 15.946 472.11 19.276L469.05 21.556C467.39 22.796 466.08 24.046 465.12 25.326C464.15 26.606 463.44 27.966 462.97 29.426C461.68 33.006 460.69 36.136 460.01 38.826C459.32 41.516 459.14 44.886 459.46 48.936C459.78 52.976 461.29 56.816 463.98 60.426C467.17 64.706 470.93 68.106 475.27 70.626C479.6 73.146 484.37 74.266 489.56 74.006C494.75 73.746 500.08 71.576 505.55 67.496C513.71 61.416 518.12 54.616 518.76 47.126L518.75 47.116Z" fill="black"/>
    <path d="M225.85 131.99L229.07 129.03C230.81 131.14 233.06 132.21 235.09 132.21C237.71 132.21 239.38 130.73 239.38 128.77C239.38 126.52 237.24 125.7 235.17 125.11C230.51 123.78 226.78 122.15 226.78 117.5C226.78 113.1 230.51 109.96 235.43 109.96C238.5 109.96 241.31 111.07 243.41 113.62L240.12 116.65C238.6 114.8 237.02 114.03 235.32 114.03C232.88 114.03 231.29 115.51 231.29 117.32C231.29 119.43 233.25 120.13 235.21 120.72C239.87 121.98 243.86 123.42 243.86 128.55C243.86 132.95 240.42 136.24 234.81 136.24C231.45 136.24 228.08 135.02 225.87 131.99H225.85Z" fill="black"/>
    <path d="M245.18 126.12C245.18 120.39 248.53 116.08 253.83 116.08C256.52 116.08 258.56 117.2 259.95 119.62L260.22 119.58C260.14 118.5 260.14 117.62 260.14 116.5H264.45V135.69H260.14C260.14 134.54 260.14 133.73 260.22 132.57L259.95 132.53C258.53 134.99 256.3 136.15 253.64 136.15C248.45 136.15 245.18 131.73 245.18 126.11V126.12ZM260.22 126.08C260.22 122.5 258.1 119.96 254.8 119.96C251.53 119.96 249.53 122.65 249.53 126.11C249.53 129.61 251.53 132.23 254.8 132.23C258.15 132.23 260.22 129.69 260.22 126.08Z" fill="black"/>
    <path d="M266.48 116.51H270.79C270.79 117.63 270.79 118.43 270.71 119.51L270.98 119.55C272.25 117.24 274.36 116.05 276.9 116.05C281.44 116.05 283.63 119.17 283.63 123.67V135.71H279.25V124.79C279.25 121.87 277.94 120.02 275.17 120.02C272.36 120.02 270.86 122.17 270.86 124.9V135.71H266.48V116.51Z" fill="black"/>
    <path d="M285.14 126.08C285.14 120.35 288.45 116 293.79 116C296.41 116 298.56 117.12 299.91 119.54L300.18 119.46C300.03 117.88 300.03 116.81 300.03 115.11V107.81H304.41V135.7H300.1C300.1 134.58 300.1 133.7 300.18 132.62L299.91 132.58C298.53 134.96 296.33 136.12 293.6 136.12C288.45 136.12 285.14 131.7 285.14 126.08ZM300.18 126.08C300.18 122.46 298.06 119.96 294.76 119.96C291.49 120 289.49 122.61 289.49 126.11C289.49 129.57 291.49 132.23 294.76 132.23C298.11 132.23 300.18 129.65 300.18 126.08Z" fill="black"/>
    <path d="M306.01 111.43C306.01 109.85 307.16 108.78 308.78 108.78C310.4 108.78 311.55 109.86 311.55 111.43C311.55 113 310.4 114.05 308.78 114.05C307.16 114.05 306.01 112.97 306.01 111.43ZM306.59 116.51H310.97V135.7H306.59V116.51Z" fill="black"/>
    <path d="M312.98 126.12C312.98 120.2 316.83 115.89 322.52 115.89C328.25 115.89 331.56 119.74 331.56 125.7C331.56 126.28 331.52 126.78 331.48 127.35H317.25C317.67 130.27 319.67 132.43 322.6 132.43C324.83 132.43 326.52 131.28 327.48 129.2L331.17 130.97C329.48 134.47 326.4 136.28 322.52 136.28C316.83 136.28 312.98 132.01 312.98 126.13V126.12ZM327.36 124.01C326.9 121.39 325.28 119.7 322.51 119.7C319.86 119.7 318.05 121.47 317.39 124.01H327.35H327.36Z" fill="black"/>
    <path d="M333.06 139.28L336.87 137.43C337.87 139.39 339.6 140.51 342.02 140.51C345.37 140.51 347.6 138.36 347.6 135.09C347.6 133.9 347.6 133.28 347.64 132.13L347.37 132.09C346.02 134.55 343.75 135.86 340.91 135.86C335.76 135.86 332.6 131.51 332.6 125.94C332.6 120.37 335.87 116.05 341.25 116.05C343.94 116.05 345.98 117.17 347.37 119.63L347.68 119.55C347.6 118.51 347.56 117.63 347.56 116.51H351.91V134.74C351.91 140.82 347.87 144.32 342.02 144.32C337.64 144.32 334.67 142.47 333.06 139.28ZM347.64 125.97C347.64 122.47 345.56 119.97 342.22 119.97C338.95 120.05 336.95 122.59 336.95 126.01C336.95 129.39 338.99 131.9 342.22 131.9C345.57 131.9 347.64 129.52 347.64 125.98V125.97Z" fill="black"/>
    <path d="M352.98 126.08C352.98 120.2 356.94 115.89 362.79 115.89C368.6 115.89 372.56 120.16 372.56 126.04C372.56 131.92 368.6 136.27 362.79 136.27C356.94 136.27 352.98 131.96 352.98 126.08ZM368.21 126.05C368.21 122.55 366.13 119.78 362.79 119.78C359.41 119.78 357.33 122.55 357.33 126.09C357.33 129.59 359.41 132.4 362.79 132.4C366.14 132.4 368.21 129.59 368.21 126.05Z" fill="black"/>
    <path d="M374.16 114.01C374.16 115.4 373.04 116.53 371.66 116.53C370.28 116.53 369.14 115.4 369.14 114.01C369.14 112.62 370.26 111.48 371.69 111.48C373.12 111.48 374.16 112.63 374.16 114.01ZM369.65 114.01C369.65 115.13 370.55 116.05 371.65 116.05C372.75 116.05 373.65 115.14 373.65 114.01C373.65 112.88 372.76 111.96 371.68 111.96C370.55 111.96 369.66 112.86 369.66 114.01H369.65ZM371.77 112.58C372.07 112.58 372.26 112.62 372.42 112.71C372.66 112.85 372.79 113.08 372.79 113.36C372.79 113.67 372.63 113.9 372.33 114.03C372.65 114.17 372.74 114.35 372.75 114.94C372.76 115.15 372.79 115.29 372.82 115.37H372.19C372.16 115.3 372.14 115.22 372.12 115.01C372.09 114.59 372.07 114.47 371.98 114.37C371.9 114.28 371.74 114.22 371.56 114.22H371.24V115.36H370.58V112.57H371.76L371.77 112.58ZM371.25 113.85H371.63C371.99 113.85 372.15 113.71 372.15 113.41C372.15 113.11 372 112.98 371.67 112.98H371.26V113.84L371.25 113.85Z" fill="black"/>
    <path d="M200.24 105.02V105H165.88C159.32 105 154 110.32 154 116.88V117.06C154 123.72 159.4 129.12 166.06 129.12H154V141.18H173.3C179.96 141.18 185.36 135.78 185.36 129.12V141.18H199.32C209.31 141.18 217.41 133.08 217.41 123.09C217.41 113.1 209.8 105.5 200.24 105.02ZM193.34 117.11C188.93 117.11 185.36 120.68 185.36 125.09V125.2C185.36 120.7 181.72 117.06 177.22 117.06H177.4C181.8 117.06 185.36 113.5 185.36 109.1V109.08C185.36 113.49 188.93 117.06 193.34 117.06V117.11Z" fill="black"/>
</svg>
