<svg width="221" height="40" viewBox="0 0 221 40" fill="none" xmlns="http://www.w3.org/2000/svg">
<g clip-path="url(#clip0_1_1105)">
<path d="M71.8501 26.9901L75.0701 24.0301C76.8101 26.1401 79.0601 27.2101 81.0901 27.2101C83.7101 27.2101 85.3801 25.7301 85.3801 23.7701C85.3801 21.5201 83.2401 20.7001 81.1701 20.1101C76.5101 18.7801 72.7801 17.1501 72.7801 12.5001C72.7801 8.10008 76.5101 4.96008 81.4301 4.96008C84.5001 4.96008 87.3101 6.07008 89.4101 8.62008L86.1201 11.6501C84.6001 9.80008 83.0201 9.03008 81.3201 9.03008C78.8801 9.03008 77.2901 10.5101 77.2901 12.3201C77.2901 14.4301 79.2501 15.1301 81.2101 15.7201C85.8701 16.9801 89.8601 18.4201 89.8601 23.5501C89.8601 27.9501 86.4201 31.2401 80.8101 31.2401C77.4501 31.2401 74.0801 30.0201 71.8701 26.9901H71.8501Z" fill="black"/>
<path d="M91.1802 21.1201C91.1802 15.3901 94.5302 11.0801 99.8302 11.0801C102.52 11.0801 104.56 12.2001 105.95 14.6201L106.22 14.5801C106.14 13.5001 106.14 12.6201 106.14 11.5001H110.45V30.6901H106.14C106.14 29.5401 106.14 28.7301 106.22 27.5701L105.95 27.5301C104.53 29.9901 102.3 31.1501 99.6402 31.1501C94.4502 31.1501 91.1802 26.7301 91.1802 21.1101V21.1201ZM106.22 21.0801C106.22 17.5001 104.1 14.9601 100.8 14.9601C97.5302 14.9601 95.5302 17.6501 95.5302 21.1101C95.5302 24.6101 97.5302 27.2301 100.8 27.2301C104.15 27.2301 106.22 24.6901 106.22 21.0801Z" fill="black"/>
<path d="M112.48 11.51H116.79C116.79 12.63 116.79 13.43 116.71 14.51L116.98 14.55C118.25 12.24 120.36 11.05 122.9 11.05C127.44 11.05 129.63 14.17 129.63 18.67V30.71H125.25V19.79C125.25 16.87 123.94 15.02 121.17 15.02C118.36 15.02 116.86 17.17 116.86 19.9V30.71H112.48V11.51Z" fill="black"/>
<path d="M131.14 21.0801C131.14 15.3501 134.45 11.0001 139.79 11.0001C142.41 11.0001 144.56 12.1201 145.91 14.5401L146.18 14.4601C146.03 12.8801 146.03 11.8101 146.03 10.1101V2.81006H150.41V30.7001H146.1C146.1 29.5801 146.1 28.7001 146.18 27.6201L145.91 27.5801C144.53 29.9601 142.33 31.1201 139.6 31.1201C134.45 31.1201 131.14 26.7001 131.14 21.0801ZM146.18 21.0801C146.18 17.4601 144.06 14.9601 140.76 14.9601C137.49 15.0001 135.49 17.6101 135.49 21.1101C135.49 24.5701 137.49 27.2301 140.76 27.2301C144.03 27.2301 146.18 24.6501 146.18 21.0801Z" fill="black"/>
<path d="M152.01 6.43003C152.01 4.85003 153.16 3.78003 154.78 3.78003C156.4 3.78003 157.55 4.86003 157.55 6.43003C157.55 8.00003 156.4 9.05003 154.78 9.05003C153.16 9.05003 152.01 7.97003 152.01 6.43003ZM152.59 11.51H156.97V30.7H152.59V11.51Z" fill="black"/>
<path d="M158.98 21.12C158.98 15.2 162.83 10.89 168.52 10.89C174.25 10.89 177.56 14.74 177.56 20.7C177.56 21.28 177.52 21.78 177.48 22.35H163.25C163.67 25.27 165.67 27.43 168.6 27.43C170.83 27.43 172.52 26.28 173.48 24.2L177.17 25.97C175.48 29.47 172.4 31.28 168.52 31.28C162.83 31.28 158.98 27.01 158.98 21.13V21.12ZM173.36 19.01C172.9 16.39 171.28 14.7 168.51 14.7C165.74 14.7 164.05 16.47 163.39 19.01H173.35H173.36Z" fill="black"/>
<path d="M179.06 34.28L182.87 32.43C183.87 34.39 185.6 35.51 188.02 35.51C191.37 35.51 193.6 33.36 193.6 30.09C193.6 28.9 193.6 28.28 193.64 27.13L193.37 27.09C192.02 29.55 189.75 30.8601 186.91 30.8601C181.76 30.8601 178.6 26.51 178.6 20.94C178.6 15.37 181.87 11.05 187.25 11.05C189.94 11.05 191.98 12.17 193.37 14.63L193.68 14.55C193.6 13.51 193.56 12.63 193.56 11.51H197.91V29.74C197.91 35.82 193.87 39.32 188.02 39.32C183.64 39.32 180.67 37.47 179.06 34.28ZM193.64 20.97C193.64 17.47 191.56 14.97 188.22 14.97C184.95 15.05 182.95 17.59 182.95 21.01C182.95 24.39 184.99 26.9 188.22 26.9C191.57 26.9 193.64 24.52 193.64 20.98V20.97Z" fill="black"/>
<path d="M198.98 21.08C198.98 15.2 202.94 10.89 208.79 10.89C214.64 10.89 218.56 15.16 218.56 21.04C218.56 26.93 214.6 31.27 208.79 31.27C202.94 31.27 198.98 26.96 198.98 21.08ZM214.21 21.05C214.21 17.55 212.13 14.78 208.79 14.78C205.41 14.78 203.33 17.55 203.33 21.09C203.33 24.59 205.41 27.4 208.79 27.4C212.14 27.4 214.21 24.59 214.21 21.05Z" fill="black"/>
<path d="M220.16 9.00998C220.16 10.4 219.04 11.53 217.66 11.53C216.28 11.53 215.14 10.4 215.14 9.00998C215.14 7.61998 216.26 6.47998 217.69 6.47998C219.12 6.47998 220.16 7.62998 220.16 9.00998ZM215.65 9.00998C215.65 10.13 216.55 11.05 217.65 11.05C218.75 11.05 219.65 10.14 219.65 9.00998C219.65 7.87998 218.76 6.95998 217.68 6.95998C216.55 6.95998 215.66 7.85998 215.66 9.00998H215.65ZM217.77 7.57998C218.07 7.57998 218.26 7.61998 218.42 7.70998C218.66 7.84998 218.79 8.07998 218.79 8.35998C218.79 8.66998 218.63 8.89998 218.33 9.02998C218.65 9.16998 218.74 9.34998 218.75 9.93998C218.76 10.15 218.79 10.29 218.82 10.37H218.19C218.16 10.3 218.14 10.22 218.12 10.01C218.09 9.58998 218.07 9.46998 217.98 9.36998C217.9 9.27998 217.74 9.21998 217.56 9.21998H217.24V10.36H216.58V7.56998H217.76L217.77 7.57998ZM217.25 8.84998H217.63C217.99 8.84998 218.15 8.70998 218.15 8.40998C218.15 8.10998 218 7.97998 217.67 7.97998H217.26V8.83998L217.25 8.84998Z" fill="black"/>
<path d="M46.24 0.02V0H11.88C5.32 0 0 5.32 0 11.88V12.06C0 18.72 5.4 24.12 12.06 24.12H0V36.18H19.3C25.96 36.18 31.36 30.78 31.36 24.12V36.18H45.32C55.31 36.18 63.41 28.08 63.41 18.09C63.41 8.1 55.8 0.5 46.24 0.02ZM39.34 12.11C34.93 12.11 31.36 15.68 31.36 20.09V20.2C31.36 15.7 27.72 12.06 23.22 12.06H23.4C27.8 12.06 31.36 8.5 31.36 4.1V4.08C31.36 8.49 34.93 12.06 39.34 12.06V12.11Z" fill="black"/>
</g>
<defs>
<clipPath id="clip0_1_1105">
<rect width="220.16" height="39.32" fill="white"/>
</clipPath>
</defs>
</svg>
