<svg width="813" height="1101" viewBox="0 0 813 1101" fill="none" xmlns="http://www.w3.org/2000/svg">
    <g clip-path="url(#clip0_2_1214)">
        <path d="M95.1517 653.994L138.063 695.008L178.207 733.45L233.616 786.637C274.893 826.26 314.042 866.254 353.102 908.057L400.278 958.554L438.245 999.347L529.219 1100.99H636.492L521.586 972.068L474.705 920.891L434.237 876.977L317.725 756.508L254.673 694.557L207.448 649.633L159.297 603.077L106.704 552.551C71.2093 518.45 35.5664 485.149 -0.519653 452.368V562.574C13.8498 576.029 28.1503 589.613 42.431 603.338L95.1222 653.974L95.1517 653.994Z" fill="#197FC3"/>
        <path d="M252.319 964.065L369.057 1080.04L389.789 1101H506.744L393 988.153L295.191 891.311L245.001 842.985C165.807 766.731 83.6384 696.037 -0.5 626.205V730.229C64.0688 784.496 125.722 840.325 186.214 899.454L252.319 964.065Z" fill="#197FC3"/>
        <path d="M144.347 1101C130.135 1084.59 115.864 1068.22 101.504 1051.87C109.62 1051.82 115.637 1059.3 120.956 1064.6L157.505 1101H287.568L279.65 1092.06L230.071 1038.17L146.563 950.731L53.1465 858.65L-0.5 807.634V1056.7C12.9141 1071.42 26.2789 1086.18 39.5945 1101H144.347Z" fill="#197FC3"/>
        <path d="M812.5 899.514L803.449 889.931L661.596 745.244L582.373 667.278L522.797 610.189L399.726 495.412L230.534 342.432C154.845 274.01 78.1132 209.288 -0.5 145.377V251.292C40.1953 284.423 80.2997 318.224 119.862 353.485L253.225 472.364C358.302 566.035 462.217 658.545 561.306 759.178L772.248 973.388L812.49 1016.2V899.514H812.5Z" fill="#197FC3"/>
        <path d="M812.5 1040.81L761.336 990.474L688.287 919.481C575.577 809.945 460.887 705.861 342.751 602.227L183.978 462.961C125.289 411.474 68.2842 360.588 4.91689 314.423L-0.490112 310.481V413.745C48.9312 453.788 97.4268 495.002 145.716 537.326L300.293 672.81C397.205 757.758 491.734 842.025 583.899 932.075L654.121 1000.69L732.065 1077.28L755.8 1101H812.52V1040.82L812.5 1040.81Z" fill="#197FC3"/>
        <path d="M812.5 475.976L793.147 455.609L714.977 373.732L527.603 183.15L468.323 125.741L428.997 88.569C397.382 58.6792 365.561 29.2196 333.611 0H212.845C253.55 36.3519 294.009 73.1039 334.035 110.956L454.023 224.423L559.878 330.038L702.42 476.846L773.853 552.071L812.51 592.874V475.966L812.5 475.976Z" fill="#197FC3"/>
        <path d="M812.5 678.892C584.51 458.21 253.412 181.769 1.77508 0H-0.5V99.0324C93.2016 168.035 185.662 238.708 275.769 312.762C456.564 461.341 633.429 613.921 797.707 780.795L812.5 795.82V678.892Z" fill="#197FC3"/>
        <path d="M812.5 133.774C795.324 117.518 778.039 101.353 760.587 85.2779L667.949 0H449.266C515.804 55.8082 579.615 113.647 643.179 173.587L721.487 247.441L766.979 291.325L812.5 336.04V133.764V133.774Z" fill="#197FC3"/>
    </g>
    <defs>
        <clipPath id="clip0_2_1214">
            <rect width="813" height="1101" fill="white" transform="translate(-0.5)"/>
        </clipPath>
    </defs>
</svg>