<svg width="835" height="1127" viewBox="0 0 835 1127" fill="none" xmlns="http://www.w3.org/2000/svg">
    <path d="M193.81 1126.76H175.36C156.4 1114.67 173.33 1076.6 181.74 1061.05L209.56 1009.61C222.74 985.24 238.4 963.31 253.63 940.02C286.56 889.66 322.81 842.66 360.55 795.94L394.73 753.61C426.95 713.71 459.12 674.82 494.38 637.62L512.85 618.14L549.86 580.17L593.57 535.42C608.43 520.21 622.55 505.75 638.04 491.19L694.64 438C670.6 455.94 649.47 475.94 627.33 496.06L554.14 562.6L538.55 577.34L519.25 595.65C503.27 610.81 487.99 626.01 472.84 642.03L452.51 663.54L437.82 679.12L422.14 695.78L402.79 716.24C375.92 744.64 350.41 773.33 325.79 803.87L241.57 908.31L199.31 963.2L146.9 1030.69C133.71 1047.68 110.13 1079.6 92.5902 1089.63C85.6502 1093.6 77.5502 1092.78 71.8502 1087.84C66.2802 1083.01 64.8102 1075.36 67.5102 1067.91C72.3802 1054.46 78.5402 1042.52 86.0202 1030C106.84 995.16 127.59 960.56 151.38 927.4L292.37 730.82C310.01 706.22 329.46 684.09 349.14 661.31L402.37 599.68C441.98 553.82 481.76 509.3 523.62 465.55L550.75 437.19L577.51 409.57L652.76 332.55L564.12 413.95L544.22 432.95L462.35 514.84C423.89 553.31 388.53 593.64 352.73 634.43L307.29 686.2C280.53 716.69 255.99 748.01 231.24 780.29L146.17 891.28L83.6502 974.73C60.3802 1005.79 36.4702 1035.42 9.94023 1063.42C6.95023 1066.57 3.55023 1068.96 -0.00976562 1069.39V995.32C1.26023 994.68 2.05023 993.33 2.88023 991.7C14.4202 968.8 27.3002 947.46 41.1902 925.81L77.1402 869.78L157.47 753.06C232.83 643.56 364.5 483.81 457.9 390.4L524.55 323.74L549.23 300.18L577.9 272.49L617.88 233.29L637.15 214.85L668.46 185C664.14 185.37 663.74 189.2 660.14 190.19L525.22 302.21C485.06 335.55 447.33 370.59 409.88 406.62L383.17 432.32L354.42 460.05L298.31 515.38L257.95 556.47L214.58 603.05C180.35 639.81 148.46 677.51 115.42 715.21L88.9202 745.44C71.3602 765.47 54.7002 785.1 38.1602 806.07L0.000234375 854.47V801.26C22.2802 773.65 45.2002 746.89 68.9202 720L88.5802 697.72C127.59 653.51 165.83 609.38 206.04 566.18L220.25 550.91L242.19 527.9L315.03 455.17L346.32 424.82L375.49 396.66L400.6 372.51C434.62 339.8 469.26 308.66 505.65 278.39L614.24 188.06L668.92 144.23L833.96 25.7998L834.3 93.4198L769.44 143.78C737.61 168.08 708.09 193.7 678.89 220.94L646.98 250.71L616.8 279.95L588.64 307.08L565.76 329.03L545.26 348.39L470.61 423.03C406.83 486.8 348.52 555.46 291.73 625.64C250.71 676.34 212.4 728.95 174.82 782.17C143.54 826.47 111.91 869.87 84.5402 917L173.85 801.04L212.17 752.49C241.7 715.07 271.35 678.84 303.07 643.2L361.54 577.52L405.41 529.74L427.23 506.61L457.03 475.85L512.33 420.78L535.83 398.23L592.53 345.45C633.2 307.59 673.88 270.68 716.54 234.94C755.07 201.92 793.55 170.1 834.13 138.59L834.36 211.1C806.71 233.04 780.61 255.95 755.1 280.43L731.52 302.92L708.11 325.4L682.01 350.4L638.27 393.26L583.91 448.51L554.64 478.77L528.42 506.03C494 541.81 461.8 578.5 429.33 616.12L377.55 676.12C345.02 713.82 314.2 751.83 285.31 792.46C269.21 815.1 252.39 836.08 237.59 859.92L298.97 786.28C326.33 753.45 354.08 722.22 383.36 691.26L402.67 670.84L420.46 652.15L437.63 633.82L461.31 609.35L507.35 564.12L524.13 548.41L543.69 530.21L627.84 454.04C649.36 434.56 670.73 416.48 693.44 398.36C739.24 361.09 785.45 325.75 834.19 291.3V359.31C799.31 386.41 767.07 414.45 736.01 444.82C732.17 447.47 729.81 450.47 726.45 453.53L671.5 503.71L654.64 519.39L584.94 589.42L540.61 634.73L515.92 660.39C489.34 688.01 464.51 716.24 440.34 746.21L370.48 832.86C337.5 873.77 306.63 915.44 277.79 959.49C281.52 958.83 283.03 955.48 285.11 952.87L330.37 895.97C351.64 869.24 373.73 844.57 397.39 820.07L427.14 789.26L449.67 765.8L467.96 746.62L500.34 712.05L535.53 675.79L568.95 643.37L589.54 624.12L648.7 570.87L695.45 527.71C714.9 509.76 734.7 493.73 755.44 477.14L834.1 414.21L834.21 455.55L772.53 505.68L741.08 532.81L678.33 588.64L651.09 613.79L605.38 658.83L579.04 685.69C577.01 687.76 574.16 690.09 574.18 693.24C627.11 646.03 680.68 600.86 736.73 557.7L833.82 487.15L834.11 524.42L751.63 585.02C671.58 643.83 598.82 710.88 526.79 778.96L506.16 798.46L447.32 857.37L428.4 877.31L396.55 911.28C370.65 938.9 345.82 966.26 320.8 994.76L267.16 1055.88C258.43 1065.83 249.92 1075.33 239.73 1083.55C234.72 1087.59 231.56 1092.69 226.84 1097.02L198.62 1122.87C196.98 1124.37 194.59 1124.82 193.79 1126.68L193.81 1126.76Z" fill="#9CC54B"/>
    <path d="M0 599.92V514.37C12.17 500.18 22.98 485.16 34.78 469.74C64.3 431.18 94.34 393.64 126.04 356.7C169.6 305.93 213.34 255.98 259.43 207.69L276.93 189.36L332.67 132.1L252.86 201.66L225.63 226.85L170.93 281.58L147.8 305.73C96.52 359.25 48.39 414.97 0 470.56V420.48L60.31 353.62L96.22 314.34L115.35 293.86L137.41 270.77L201.09 206.63C205.36 202.33 209.78 199.7 213.72 194.72C287.7 128.82 361.87 64.1801 438.29 0.100098L528.82 0.280098L423.95 94.2501L358.6 155.4L274.18 239.8L258.45 256.52L247.86 267.88C234.98 281.69 222.13 294.91 210.41 309.9L263.33 258.4L276.82 245.57L326.56 199.46C362.56 166.08 398.65 134.14 436.27 102.73L471.56 73.2701C500.91 47.9701 530.31 24.1001 561.35 0.200098L612.38 0.250098C575.31 27.4901 540 55.7901 504.77 85.3601L462.04 121.23C422.65 154.3 384.51 187.56 346.79 222.57L302.34 263.82L279.91 285.27C265.39 299.15 251.54 313.03 237.69 327.56L216.81 349.47L203.65 363.46L137.8 436.11L126.66 448.26C97.18 480.42 68.77 512.37 41.77 546.76L0 599.92Z" fill="#9CC54B"/>
    <path d="M0 788.74V686.5C0.51 686.17 1.25 685.97 1.94 685.05L67.98 596.91C93.71 562.57 120.49 530.46 149.25 498.73L204.79 437.46C245.22 392.86 287.22 350.76 330.18 308.59L372.89 266.68C394.74 245.24 417.1 225.74 440.47 205.86L506.91 149.35L626.72 49.0798C646.95 31.4298 667.54 15.7398 689.11 0.00976562L776.81 0.269766L668.53 84.3698L606.83 132.35C563.78 165.83 522.81 200.61 483.38 238.15L457.04 263.23L410.83 308.64L376.98 341.55L345.15 372.34C334.73 382.41 324.89 392.25 314.81 402.68L283.56 434.99L266.79 452.65L238.56 483.05C209.41 514.44 181.56 545.98 154.96 579.67L100.6 648.52C64.73 693.96 31.16 740.49 0.01 788.75L0 788.74Z" fill="#9CC54B"/>
    <path d="M671.6 1126.76H616.55C626.85 1107.56 641.91 1091.83 654.96 1072.75C641.77 1083.71 631.58 1097.15 619.94 1109.54C614.32 1115.53 608.7 1120.82 603.81 1126.76H555.26C557.23 1120.95 559.41 1115.2 562.8 1109.45C577.38 1084.75 592.8 1061.17 610.48 1038.36C652.72 983.89 695.53 930.84 740.77 878.93L791.78 820.4L803.3 807.79L818.96 791.12C823.96 785.8 828.03 780.19 834.22 775.39L834.16 822.68L764.12 902.04C753.21 914.4 742.91 925.81 732.53 938.77C736.96 936.94 739.4 933.77 742.68 930.69L811.88 865.69L834.24 845.4L834.29 915.61C830.32 920.03 825.83 922.92 823.07 927.57C828.45 925.37 829.93 920.66 834.36 917.95L834.05 959.64C833.6 961.96 830.39 963.18 828.78 964.78L750.44 1042.89C722.97 1070.28 695.86 1097.22 671.58 1126.77L671.6 1126.76Z" fill="#9CC54B"/>
    <path d="M0 314.07V179.49C5.82 175.19 10.41 169.39 15.88 163.9L62.14 117.43L113.19 66.4298C137.24 43.4498 161.02 21.4598 186.8 0.0498047L311.04 0.199805L246.53 56.6098L221.27 79.5798L159.44 141.79L130.21 172.1L110.26 193.12C72.48 232.91 35.97 273.16 0 314.07Z" fill="#9CC54B"/>
    <path d="M0 416.31V327.63L124.51 204.02L161.75 169.2L234.58 102.11L355.33 0L407.97 0.35L365.67 37.3L292.15 103.39C269.11 123.85 251.18 142.73 229.95 164.34L191.18 203.8L159.23 236.78C103.36 294.44 51.2 354.95 0 416.31Z" fill="#9CC54B"/>
    <path d="M0 164.89V42.8301L43.91 0.0800781L155.34 0.130078L137.87 18.2001L45.76 115.7L12.26 152.1C8.1 156.62 4.63 161.4 0 164.88L0 164.89Z" fill="#9CC54B"/>
    <path d="M757.12 1126.76H704.09C711.53 1114.34 720.05 1102.33 729.27 1090.62L739.5 1077.63C753.07 1062.93 764.09 1047.16 776.96 1031.72L834.13 963.14L834.27 1044.9L804.88 1075.44L786.19 1095.5C776.31 1106.1 766.02 1115.8 757.12 1126.77V1126.76Z" fill="#9CC54B"/>
    <path d="M630.22 813.28L606.76 834.54L547.55 892.95L515.56 925.84L491.5 952.1C463.76 982.37 436.86 1012.34 410.67 1044.14C392.75 1065.89 375 1086.56 355.05 1106.19C350.45 1110.72 345.32 1115.32 339.16 1116.01C333.35 1116.66 327.77 1114.93 324.5 1111.35C320.93 1107.44 319 1101.19 320.6 1095.19C324.4 1080.93 332.02 1068.31 339.76 1055.44C358.98 1023.47 380.03 993.95 403.74 965.16L451.31 907.39C473.78 880.1 495.49 853.43 519.93 828.03L544.09 802.92C557.46 789.03 570.72 775.83 584.6 762.44L612.78 735.26L634.2 714.85L659.7 690.31L691.96 659.16L717.75 634.5C754.82 598.13 793.25 564.32 834.06 531.14L834.36 573.2C798.14 603.63 763.69 635.26 729.47 667.98L705.93 690.49L680.46 714.97L656.92 737.48L637.68 755.83L616.68 775.66L548.38 843.77C542.94 849.2 538.9 855 532.85 859.69L518.3 877.32L580.79 816.92L628.94 773.27L697.05 710.97L737.42 675.18C768.79 647.36 800.28 620.86 834 595.17L834.19 633.97L813.77 650.41L747.45 707.04L717.61 733.73L630.21 813.3L630.22 813.28Z" fill="#9CC54B"/>
    <path d="M603.63 972.26L557.12 1021.5L543.9 1035.49L526.28 1054.41C512.53 1069.17 499.52 1083.51 484.64 1097.19C478.7 1102.65 473.03 1109.24 464.34 1108.63C455.45 1108.01 448.25 1101.04 448.21 1092.03C448.17 1084.13 453.56 1077.86 457.54 1071.09C472.54 1045.59 489.84 1022.92 508.09 999.69L543.93 954.05L577.11 914.27C600.04 886.77 623.17 860.7 647.33 834.14L707.31 768.2L724.48 749.72L742.27 730.89L782.48 689.85L820.81 652.32L834.07 639.74L834.3 684.63L783.63 735.93L758.04 762.51L743.23 778.02L698.57 826.29L640.77 889.95C652.4 882.41 660.56 872.63 670.49 863.6L767.03 775.86C789.1 755.8 810.79 736.81 834.22 718.24L834.36 757.77L804.22 783.8L721.68 858.43L678.81 898.05L660.52 915.34L630.83 944.05L603.61 972.25L603.63 972.26Z" fill="#9CC54B"/>
</svg>
