<svg width="443" height="419" viewBox="0 0 443 419" fill="none" xmlns="http://www.w3.org/2000/svg">
    <g clip-path="url(#clip0_2_1248)">
        <path d="M409.66 0H32.43C14.5194 0 0 14.5194 0 32.43V385.63C0 403.541 14.5194 418.06 32.43 418.06H409.66C427.571 418.06 442.09 403.541 442.09 385.63V32.43C442.09 14.5194 427.571 0 409.66 0Z" fill="white"/>
        <g clip-path="url(#clip1_2_1248)">
            <path d="M101.5 153.49C166.98 159.11 218.75 212.72 221.48 278.98C224.21 212.72 275.98 159.11 341.46 153.49C275.98 147.87 224.22 94.27 221.48 28C218.75 94.27 166.98 147.87 101.5 153.49Z" fill="#F4B822"/>
            <path d="M253.11 128L215.56 178.12L190.5 159.35" stroke="white" stroke-width="12.53" stroke-linecap="round" stroke-linejoin="round"/>
        </g>
        <path d="M71.6481 376.99H56.4648L57.8747 338.815H70.2382L71.6481 376.99ZM64.0565 320.595C66.0447 320.595 67.798 321.336 69.3164 322.819C70.8528 324.283 71.63 326.072 71.6481 328.187C71.63 330.248 70.8528 332.01 69.3164 333.474C67.798 334.938 66.0447 335.67 64.0565 335.67C61.9597 335.67 60.1612 334.938 58.661 333.474C57.1788 332.01 56.4468 330.248 56.4648 328.187C56.4468 326.777 56.7812 325.503 57.468 324.364C58.1549 323.207 59.0767 322.294 60.2335 321.626C61.3904 320.939 62.6647 320.595 64.0565 320.595ZM117.279 325.801C117.044 324.843 116.674 324.003 116.168 323.28C115.661 322.538 115.029 321.915 114.27 321.409C113.529 320.885 112.661 320.496 111.667 320.243C110.691 319.972 109.615 319.836 108.44 319.836C105.91 319.836 103.75 320.442 101.96 321.653C100.189 322.864 98.8333 324.608 97.8934 326.886C96.9716 329.163 96.5106 331.911 96.5106 335.128C96.5106 338.381 96.9535 341.165 97.8392 343.479C98.7249 345.792 100.044 347.564 101.798 348.793C103.551 350.022 105.729 350.637 108.332 350.637C110.627 350.637 112.534 350.302 114.053 349.633C115.589 348.965 116.737 348.016 117.496 346.786C118.255 345.557 118.635 344.111 118.635 342.448L121.238 342.72H108.549V331.983H133.167V339.683C133.167 344.744 132.092 349.073 129.941 352.67C127.808 356.249 124.862 358.996 121.102 360.912C117.36 362.81 113.068 363.759 108.223 363.759C102.819 363.759 98.0741 362.611 93.9891 360.316C89.9041 358.02 86.7138 354.749 84.4183 350.501C82.1408 346.253 81.002 341.201 81.002 335.345C81.002 330.754 81.6979 326.687 83.0897 323.144C84.4996 319.601 86.4517 316.61 88.9461 314.17C91.4405 311.711 94.3235 309.859 97.5952 308.611C100.867 307.346 104.373 306.714 108.115 306.714C111.405 306.714 114.459 307.184 117.279 308.123C120.117 309.045 122.62 310.365 124.789 312.082C126.977 313.781 128.739 315.796 130.076 318.128C131.414 320.46 132.227 323.017 132.517 325.801H117.279ZM140.196 363V307.473H180.215V319.619H155.271V329.163H178.154V341.31H155.271V350.853H180.107V363H140.196ZM235.736 307.473V363H223.155L203.092 333.826H202.766V363H187.691V307.473H200.489L220.227 336.538H220.661V307.473H235.736ZM257.941 307.473V363H242.866V307.473H257.941ZM279.509 363H263.242L281.57 307.473H302.176L320.504 363H304.236L292.09 322.764H291.656L279.509 363ZM276.473 341.093H307.056V352.372H276.473V341.093ZM325.852 363V307.473H340.927V350.853H363.376V363H325.852ZM387.039 307.473L385.629 345.648H373.266L371.856 307.473H387.039ZM379.448 363.868C377.351 363.868 375.552 363.136 374.052 361.671C372.57 360.189 371.838 358.391 371.856 356.276C371.838 354.215 372.57 352.453 374.052 350.989C375.552 349.525 377.351 348.793 379.448 348.793C381.436 348.793 383.189 349.525 384.707 350.989C386.244 352.453 387.021 354.215 387.039 356.276C387.021 357.686 386.651 358.969 385.928 360.126C385.223 361.265 384.301 362.178 383.162 362.864C382.023 363.533 380.785 363.868 379.448 363.868Z" fill="#E40D1D"/>
    </g>
    <defs>
        <clipPath id="clip0_2_1248">
            <rect width="442.09" height="418.06" fill="white"/>
        </clipPath>
        <clipPath id="clip1_2_1248">
            <rect width="239.96" height="250.98" fill="white" transform="translate(101.5 28)"/>
        </clipPath>
    </defs>
</svg>
