<?xml version="1.0" encoding="UTF-8"?>
<svg id="Capa_2" data-name="Capa 2" xmlns="http://www.w3.org/2000/svg" viewBox="0 0 721.95 158.68">
  <defs>
    <style>
      .cls-1 {
        opacity: .47;
      }

      .cls-2 {
        fill: #197fc3;
      }
    </style>
  </defs>
  <g id="Capa_1-2" data-name="Capa 1">
    <g class="cls-1">
      <path class="cls-2" d="M80.84,106.28l40.76,9.33,56.26,12.9c41.91,9.61,81.66,19.32,121.32,29.46l2.75.7h111.42l-31.79-8.24-118.3-29.23-64.02-15.03-47.95-10.9-48.88-11.29-53.4-12.26c-8.21-1.82-16.5-3.71-24.87-5.67-8.15-1.91-16.19-3.85-24.14-5.82v27.55c12.42,2.85,24.84,5.7,37.27,8.56l43.57,9.95Z"/>
      <path class="cls-2" d="M141.69,158.68h118.84l-20.15-4.77-50.96-11.73c-30.96-7.04-62.28-13.97-93.94-20.79-32.1-6.91-63.93-13.57-95.47-19.98v25.42c21.59,4.68,43.3,9.46,65.12,14.34,21.68,4.85,43.22,9.75,64.61,14.7l11.96,2.79Z"/>
      <path class="cls-2" d="M48.49,158.68c-15.76-5.68-31.51-11.35-47.27-17.03.7,2.19,2.46,6.65,6.69,10.69,4.5,4.29,9.38,5.79,11.62,6.34h28.96Z"/>
      <path class="cls-2" d="M707.42,157.49c.49-.2,2.03-.85,3.88-2.04,3.31-2.12,5.38-4.53,6.24-5.61.92-1.15,2.09-2.81,3.13-4.99-36.09-8.79-72.17-17.59-108.26-26.38l-80.44-18.92-60.49-13.85-124.96-27.85L174.72,20.74C142.03,13.68,109.14,6.79,76,0H20.83c-2.19.38-5.98,1.35-9.86,4.05-3,2.09-4.95,4.45-6.1,6.11,8.34,2.32,17.02,4.55,26.03,6.67,10.84,2.55,21.34,4.73,31.46,6.6l135.41,28.84c106.69,22.73,212.2,45.17,312.81,69.59l151.76,36.83h41.2c1.06-.22,2.39-.58,3.87-1.19Z"/>
      <path class="cls-2" d="M245.54,100.9c90.64,18.98,179.18,37.85,265.72,57.78h119.31c-111.56-25.82-225.07-50.41-341.9-74.9L127.46,49.99c-21.21-4.5-42.43-8.93-63.66-13.3C42.54,32.31,21.28,28.01,0,23.77v26.08c14.68,2.95,29.35,5.93,44.02,8.93,14.86,3.05,29.72,6.13,44.58,9.24l156.95,32.87Z"/>
      <polygon class="cls-2" points="721.95 42.19 666.6 28.33 550.02 0 434.72 0 509.12 17.74 653.85 53.35 721.95 70.49 721.95 42.19"/>
      <path class="cls-2" d="M721.95,92.39C591.74,62.96,434.88,30.31,279.64,0h-129.18c23.54,4.47,46.95,8.98,70.2,13.54,173.1,33.99,342.66,68.85,501.29,106.66v-27.81Z"/>
      <path class="cls-2" d="M712.04,4.05c-.32-.18-.64-.35-.95-.54-2.05-1.15-4.16-2.09-6.33-2.99-.83-.09-1.59-.27-2.3-.53h-19.26l32.64,7.52c-1.06-1.34-2.08-2.43-3.8-3.47Z"/>
    </g>
  </g>
</svg>